<svg xmlns="http://www.w3.org/2000/svg" viewBox="0 0 500 336.22"><defs><style>.cls-1{fill:#fff;}.cls-2{font-size:237.55px;font-family:BebasNeueBold;}.cls-2,.cls-3{fill:#90007f;}.cls-4{fill:#f5efdb;}.cls-5{fill:#b32d2f;}.cls-6{fill:#832c34;}.cls-7{fill:#3c2a34;}.cls-8{fill:#98d5cc;}.cls-9{fill:#d0c4b3;}.cls-10{fill:#fffdf2;}.cls-11{fill:#aea598;}.cls-12{fill:#e76650;}.cls-13{fill:#616364;}.cls-14{fill:#e9a295;}.cls-15{fill:#efcac4;}</style></defs><title>error</title><g id="BACKGROUND"><rect class="cls-1" width="500" height="312.67"/></g><g id="OBJECT"><text class="cls-2" transform="translate(68.09 276.83)">4</text><text class="cls-2" transform="translate(337.84 276.83)">4</text><path class="cls-3" d="M333.64,204.78c0,49.52-35,77.3-85.24,77.3s-82-33.36-82-82.88,31.85-98.39,82-98.39S333.64,155.26,333.64,204.78Z"/><path class="cls-4" d="M292.54,273.16l-7.07-44.4-74.37,3.15-7,39.25S243.52,296.14,292.54,273.16Z"/><path class="cls-5" d="M208.74,243.46s46.8,4.26,78.39-4.27l2.79,17.95s-41.18,18.92-84.09,2.53Z"/><path class="cls-6" d="M258.89,293.84s-1.08,6.3.3,6.85,2.69-5.33,2.69-5.33-.25,6.09,1.33,6.37,2.25-6.11,2.25-6.11.32,7.13,2,6.7,2.4-6.72,2.4-6.72.38,6.54,2,6.55,2.25-6.65,2.25-6.65,1.21,6.31,2.38,6.08,1.25-6.15,1.25-6.15.47,6.36,2.55,6.34,2.13-6.81,2.13-6.81.72,6.5,2.62,6,1-6.65,1-6.65,1.18,5.07,2.92,5,.15-6.78.15-6.78S270.82,295.16,258.89,293.84Z"/><path class="cls-6" d="M208.59,245.9s38.66,6.53,76-2.71C284.63,243.19,244.77,253.94,208.59,245.9Z"/><path class="cls-6" d="M207.89,251.57s39.36,7,76.74-2.26C284.63,249.31,249.06,260,207.89,251.57Z"/><path class="cls-6" d="M206.4,258.17s43.81,8.93,79.79-1.89C286.19,256.28,252.39,268,206.4,258.17Z"/><path class="cls-6" d="M214.26,244.57,211.51,260S211.51,251.44,214.26,244.57Z"/><path class="cls-6" d="M222.73,244.63,220,263.25S220,252.92,222.73,244.63Z"/><path class="cls-6" d="M231.91,245.57l.17,18.82S230.48,254.18,231.91,245.57Z"/><path class="cls-6" d="M243.55,245.57l.17,18.82S242.12,254.18,243.55,245.57Z"/><path class="cls-6" d="M254.63,245.61l1.76,18.74S253.93,254.32,254.63,245.61Z"/><path class="cls-6" d="M263.7,243.4l1.76,18.74S263,252.1,263.7,243.4Z"/><path class="cls-5" d="M264.51,242.83l-5.62,51s19.05,2.88,30.22-1.33l-4.24-52.73S267.91,241.33,264.51,242.83Z"/><path class="cls-6" d="M279,241.31l1.83,53.12S277.2,263.59,279,241.31Z"/><path class="cls-6" d="M269.73,242.5l-5.45,50.86S265.19,259.85,269.73,242.5Z"/><path class="cls-6" d="M273.82,241.53,272.58,293S270.53,264.47,273.82,241.53Z"/><path class="cls-6" d="M262.77,260.1l23.67-1.86S276.74,256.75,262.77,260.1Z"/><path class="cls-6" d="M262.85,248.87,286.51,247S276.82,245.52,262.85,248.87Z"/><path class="cls-6" d="M261.4,271.09,287,269.57S276.61,268,261.4,271.09Z"/><path class="cls-6" d="M260.2,282.3l28.35-2.46S280.87,278.65,260.2,282.3Z"/><path class="cls-6" d="M259.62,289.77,288,287.31S280.29,286.12,259.62,289.77Z"/><path class="cls-4" d="M193.9,112.79s79.2-12,91-6.3,42.38,105.88,23.63,117.85-116.2,24.78-124.53.2S185.13,114.05,193.9,112.79Z"/><path class="cls-7" d="M195.09,96.74l3.41,23.84-6.31,3.55-18.9-23.32S187.27,88.92,195.09,96.74Z"/><path class="cls-7" d="M283.11,87.36,280.83,108l9.09,3.8L303.53,96S298.86,83,283.11,87.36Z"/><path class="cls-7" d="M234.58,107.55s15.51,67.45-53.8,65.85c0,0-1.41-55.92,10.78-60C207.06,108.26,234.58,107.55,234.58,107.55Z"/><path class="cls-7" d="M244.88,106.52s-5.12,69.81,62,51.53c0,0-12.77-56.56-19.77-56.29C275.84,102.21,244.88,106.52,244.88,106.52Z"/><path class="cls-8" d="M219.35,147.53a10,10,0,1,1-10-10A10,10,0,0,1,219.35,147.53Z"/><path class="cls-7" d="M219.84,147.54a7.89,7.89,0,1,1-7.89-7.89A7.88,7.88,0,0,1,219.84,147.54Z"/><path class="cls-8" d="M287.93,138.78a10,10,0,1,1-10-10A10,10,0,0,1,287.93,138.78Z"/><path class="cls-7" d="M288.42,138.78a7.89,7.89,0,1,1-7.89-7.88A7.89,7.89,0,0,1,288.42,138.78Z"/><path class="cls-9" d="M246.8,167.55s14.86,63.15-27.58,69.2-40.2-57.44,12.57-77.92C231.79,158.83,241.11,171.82,246.8,167.55Z"/><path class="cls-9" d="M245.38,165.07s-13.52,63.45,29,68.6,39-58.28-14.23-77.63C260.19,156,251.15,169.22,245.38,165.07Z"/><path class="cls-10" d="M207.06,125.39s-7.5-11.06-10.06,3.43C197,128.82,200.29,120.63,207.06,125.39Z"/><path class="cls-10" d="M283.11,116.85s-5.36-12.24-10.52,1.55C272.59,118.4,277.32,110.94,283.11,116.85Z"/><path class="cls-11" d="M190.62,202.78s1.17,36.89,25.22,29.79,31.79-31.28,31.79-31.28S257.18,230,276,232.21c14.34,1.71,27.51-21.22,27.51-21.22s-1,24.79-23,24c-26.09-1-33.46-23.66-33.46-23.66s-6.82,30.64-35.12,26.42S190.62,202.78,190.62,202.78Z"/><polygon class="cls-7" points="247 171.68 247.75 212.76 245.58 212.76 244.77 171.68 247 171.68"/><path class="cls-12" d="M261.86,230.43s3.27,27.1-12.54,27.73S233.37,234,233.37,234s11.54-12,13.32-21.2C246.69,212.76,253.67,225.72,261.86,230.43Z"/><path class="cls-7" d="M247.63,210.17s4.83,19.06,25,23.24c0,0-23.67,1-26.33-19.33,0,0-3.94,18.81-17.14,21.41,0,0,15.93-11,16.32-29.63Z"/><path class="cls-7" d="M226.59,161.07s10.68,18.65,20.48,14.7,16.1-18.29,16.1-18.29S246.18,139.75,226.59,161.07Z"/><path class="cls-13" d="M238.38,161.93s4.61-3.33,6.29,9.38C244.67,171.31,241.36,163.9,238.38,161.93Z"/><path class="cls-13" d="M251.37,160.7s-5.49,2.75-3.72,10C247.65,170.68,248.75,164.06,251.37,160.7Z"/><path class="cls-13" d="M191.24,164.07s18.42,4.26,25.88-8C217.12,156,211.42,172,191.24,164.07Z"/><path class="cls-13" d="M295.37,154.7s-18.41,4.26-25.87-8C269.5,146.67,275.2,162.59,295.37,154.7Z"/><path class="cls-14" d="M262.1,234s-18.64-4.54-27.52,9.36c0,0,2.41,15.18,14.48,15.23C264.33,258.62,262.1,234,262.1,234Z"/><path class="cls-12" d="M246.69,224.88s.83,21.61,1.73,27.45C248.42,252.33,250.69,238.4,246.69,224.88Z"/><path class="cls-10" d="M214.25,140l-2.3,5.43,5.17-3.84A6.34,6.34,0,0,0,214.25,140Z"/><path class="cls-10" d="M282.82,130.9l-2.29,5.43,5.16-3.84A6.28,6.28,0,0,0,282.82,130.9Z"/><path class="cls-15" d="M182.47,102.86s6.11-4.11,9.67-3L193.8,113l-3.94,1.36Z"/><path class="cls-1" d="M192.89,112.17s-.07-8.19-6.5-8.26A11.69,11.69,0,0,1,192.89,112.17Z"/><path class="cls-15" d="M297.33,93.53s-6.11-4.11-9.66-3L286,103.7l3.95,1.36Z"/><path class="cls-1" d="M286.91,102.84s.07-8.19,6.5-8.26A11.71,11.71,0,0,0,286.91,102.84Z"/><path class="cls-3" d="M331.5,7.67A39.39,39.39,0,0,0,318.08,84.1l-3.6,17.55,14.83-15.26q1.08.06,2.19.06a39.39,39.39,0,0,0,0-78.78Z"/><path class="cls-1" d="M323.66,54h15.67a12.86,12.86,0,0,0,23.29,0H350.1V43.05h12.52a12.86,12.86,0,0,0-23.35.14H323.73a12.86,12.86,0,0,0-23.35-.14H312.9V54H300.38a12.85,12.85,0,0,0,23.28,0Z"/><path class="cls-1" d="M340.81,52.08c-13.06,0-24.14-6.86-28.18-16.41l-.61,0a12.86,12.86,0,0,0-11.64,7.4H312.9V54H300.38a12.85,12.85,0,0,0,23.28,0h15.67a12.86,12.86,0,0,0,23.29,0H350.1V50.86A35.62,35.62,0,0,1,340.81,52.08Z"/></g></svg>