<svg xmlns="http://www.w3.org/2000/svg" xmlns:xlink="http://www.w3.org/1999/xlink" xmlns:fi="http://pattern.flaticon.com/" x="0" y="0" width="2000" height="2500" viewBox="0 0 2000 2500"><rect x="0px" y="0px" width="100%" height="100%" opacity="1" fill="#fae2ff"/><defs><g transform="matrix(0.10142121072782671 -0.02318199167120167 0.02318199167120167 0.10142121072782671 226.28449472692566 69.43976599297704)" id="L1_0"><path d="m232 103.945312h16v16h-16zm0 0" fill="#af51bf"/><path d="m104 103.945312h16v16h-16zm0 0" fill="#af51bf"/><path d="m479.6875 413.746094c-1.511719-8.050782-11.542969-13.089844-33.734375-16.992188-34.769531-6.113281-89.144531-6.113281-123.90625 0-7.34375 1.285156-13.214844 2.726563-18.046875 4.328125v-61.257812c0-43.054688-15.894531-83.574219-44.632812-115.238281 7.554687-11 12.160156-24.175782 12.601562-38.394532 7.558594-12.949218 13.183594-26.710937 17.207031-40.992187 3.640625 4.175781 8.894531 6.746093 14.6875 6.746093 8.214844 0 15.625-5.183593 18.441407-12.914062l28.085937-77.253906c1.066406-2.9375 1.609375-6.007813 1.609375-9.136719 0-11-6.601562-20.753906-16.816406-24.839844l-63.496094-25.390625c-12.589844-5.042968-27.464844-1.992187-37.0625 7.605469l-13.992188 13.992187-89.320312-.0625-13.9375-13.9375c-9.597656-9.597656-24.472656-12.640624-37.0625-7.605468l-63.488281 25.398437c-10.222657 4.085938-16.824219 13.832031-16.824219 24.839844 0 3.128906.542969 6.199219 1.609375 9.144531l28.09375 77.253906c2.808594 7.722657 10.21875 12.90625 18.433594 12.90625 5.792969 0 11.039062-2.570312 14.6875-6.746093 4.023437 14.28125 9.648437 28.042969 17.207031 40.992187.441406 14.21875 5.046875 27.394532 12.601562 38.394532-28.738281 31.664062-44.632812 72.183593-44.632812 115.238281v82.230469c0 7.984374-4.441406 15.160156-11.574219 18.730468-12.601562 6.304688-20.425781 18.96875-20.425781 33.046875v6.113281c0 8.824219 7.175781 16 16 16h88c13.230469 0 24-10.769531 24-24v-8h64v8c0 13.230469 10.769531 24 24 24h264v-24zm-95.6875-5.800782c33.367188 0 61.558594 4.070313 74.320312 8-12.761718 3.925782-40.953124 8-74.320312 8s-61.558594-4.074218-74.320312-8c12.761718-3.929687 40.953124-8 74.320312-8zm-96 6.878907-2.097656 7.328125c-12.679688-4.246094-21.902344-16.113282-21.902344-30.207032 0-14.863281 10.238281-27.289062 24-30.863281zm-120-226.191407-7.03125-7.03125c-.617188-.617187-.96875-1.472656-.96875-2.34375 0-1.824218 1.488281-3.3125 3.3125-3.3125h25.375c1.824219 0 3.3125 1.488282 3.3125 3.3125 0 .871094-.351562 1.726563-.96875 2.34375l-7.03125 7.03125c-4.207031 4.207032-11.792969 4.207032-16 0zm22.238281 67.3125-2.949219 14.742188c-1.074218 5.359375-5.816406 9.257812-11.289062 9.257812s-10.214844-3.898437-11.296875-9.257812l-2.941406-14.742188zm17.761719-32v4c0 6.617188-5.382812 12-12 12s-12-5.382812-12-12v-21.320312c4.207031-1.289062 8.113281-3.480469 11.3125-6.679688l7.03125-7.03125c3.648438-3.648437 5.65625-8.496093 5.65625-13.65625 0-10.648437-8.664062-19.3125-19.3125-19.3125h-25.375c-10.648438 0-19.3125 8.664063-19.3125 19.3125 0 5.160157 2.007812 10.007813 5.65625 13.65625l7.03125 7.03125c3.199219 3.199219 7.105469 5.390626 11.3125 6.679688v21.320312c0 6.617188-5.382812 12-12 12s-12-5.382812-12-12v-4h-16v4c0 2.429688.40625 4.75.992188 7-18.273438-8.28125-31.3125-26.066406-32.792969-47.023437 45.015625-31.800781 71.800781-83.191406 71.800781-138.503906v-9.464844h16v9.457031c0 55.320313 26.785156 106.710938 71.800781 138.503906-1.480469 20.957032-14.519531 38.742188-32.792969 47.023438.585938-2.242188.992188-4.5625.992188-6.992188v-4zm37.9375-202.625c5.125-5.128906 13.070312-6.769531 19.804688-4.0625l63.503906 25.398438c4.097656 1.640625 6.753906 5.558594 6.753906 9.984375 0 1.257813-.214844 2.496094-.648438 3.671875l-28.085937 77.25c-1.027344 2.832031-5.640625 2.894531-6.761719.109375l-10.054687-25.136719c-11.847657-29.628906-30.648438-56.125-54.617188-77.109375zm29.65625 93.160157 2.574219 6.433593c-2.6875 18.039063-8.441407 35.199219-16.9375 51.246094-38.488281-28.96875-61.230469-74.207031-61.230469-122.742187v-9.464844h21.070312c24.082032 19.855469 42.929688 45.535156 54.523438 74.527344zm-230.859375 19.089843-28.085937-77.25c-.433594-1.183593-.648438-2.421874-.648438-3.679687 0-4.425781 2.65625-8.335937 6.761719-9.984375l63.496093-25.398438c2.183594-.875 4.46875-1.3125 6.820313-1.3125 4.90625 0 9.523437 1.910157 12.992187 5.375l10.097657 10.097657c-23.976563 20.992187-42.769531 47.488281-54.617188 77.109375l-10.046875 25.136718c-1.128906 2.792969-5.734375 2.71875-6.769531-.09375zm29.097656-12.65625 2.574219-6.433593c11.59375-28.992188 30.449219-54.679688 54.539062-74.535157h21.054688v9.464844c0 48.535156-22.742188 93.773438-61.230469 122.742188-8.496093-16.039063-14.25-33.199219-16.9375-51.238282zm9.566407 143.636719c12.847656 8.890625 20.601562 23.394531 20.601562 39.394531 0 23.734376-17.335938 43.449219-40 47.277344v-11.390625c0-26.777343 6.785156-52.480469 19.398438-75.28125zm60.601562 183.394531v-72c0-17.648437 14.351562-32 32-32s32 14.351563 32 32v72zm80 24v-96c0-26.472656-21.527344-48-48-48s-48 21.527344-48 48v96c0 4.40625-3.59375 8-8 8h-88v-6.113281c0-7.984375 4.441406-15.160156 11.574219-18.726562 12.601562-6.304688 20.425781-18.96875 20.425781-33.050781v-54.671876c31.519531-3.957031 56-30.871093 56-63.445312 0-21.601562-10.566406-41.191406-28.089844-53 3.441406-4.9375 7.234375-9.648438 11.265625-14.207031 11.320313 10.476562 25.96875 17.390625 42.191407 18.878906l3.640624 18.207031c2.578126 12.824219 13.921876 22.128906 26.992188 22.128906s24.414062-9.304687 26.984375-22.121093l3.640625-18.207031c16.222656-1.488282 30.871094-8.402344 42.191406-18.878907 25.238282 28.503907 39.183594 64.6875 39.183594 103.085938v4.839843c-22.664062 3.824219-40 23.535157-40 47.28125 0 21.398438 14.089844 39.566407 33.472656 45.734376l-9.160156 32.066406-.175781 10.199218h-40.136719c-4.40625 0-8-3.59375-8-8zm256 8h-192v-6.878906l12.425781-43.496094c5.300781 2.132813 12.40625 3.949219 21.613281 5.566407 17.394532 3.054687 39.96875 4.808593 61.960938 4.808593s44.566406-1.753906 61.953125-4.808593c9.207031-1.617188 16.320313-3.433594 21.613281-5.566407l12.433594 43.496094zm0 0" fill="#af51bf"/><path d="m376 455.945312h16v16h-16zm0 0" fill="#af51bf"/><path d="m344 455.945312h16v16h-16zm0 0" fill="#af51bf"/><path d="m408 455.945312h16v16h-16zm0 0" fill="#af51bf"/><path d="m320 246.976562c0 13.769532 11.199219 24.96875 24.96875 24.96875 6.671875 0 12.941406-2.601562 17.65625-7.3125l8.6875-8.6875h41.375l8.6875 8.6875c4.714844 4.710938 10.984375 7.3125 17.65625 7.3125 13.769531 0 24.96875-11.199218 24.96875-24.96875 0-5.496093-1.761719-10.71875-5.023438-15.03125 3.261719-4.3125 5.023438-9.535156 5.023438-15.03125 0-13.769531-11.199219-24.96875-24.96875-24.96875-6.671875 0-12.941406 2.597657-17.65625 7.3125l-8.6875 8.6875h-41.375l-8.6875-8.6875c-4.714844-4.714843-10.984375-7.3125-17.65625-7.3125-13.769531 0-24.96875 11.199219-24.96875 24.96875 0 5.496094 1.761719 10.71875 5.023438 15.03125-3.261719 4.3125-5.023438 9.535157-5.023438 15.03125zm18.625-23.71875c-1.6875-1.695312-2.625-3.945312-2.625-6.34375 0-4.945312 4.023438-8.96875 8.96875-8.96875 2.398438 0 4.648438.933594 6.34375 2.625l13.375 13.375h54.625l13.375-13.375c1.695312-1.691406 3.945312-2.625 6.34375-2.625 4.945312 0 8.96875 4.023438 8.96875 8.96875 0 2.398438-.9375 4.648438-2.625 6.34375l-8.6875 8.6875 8.6875 8.6875c1.6875 1.695313 2.625 3.945313 2.625 6.34375 0 4.945313-4.023438 8.96875-8.96875 8.96875-2.398438 0-4.648438-.9375-6.34375-2.625l-13.375-13.375h-54.625l-13.375 13.375c-1.695312 1.6875-3.945312 2.625-6.34375 2.625-4.945312 0-8.96875-4.023437-8.96875-8.96875 0-2.398437.9375-4.648437 2.625-6.34375l8.6875-8.6875zm0 0" fill="#af51bf"/><path d="m288 231.945312c0 42 25.496094 79.847657 64 95.910157v49.90625l47.480469-42.199219c54.351562-3.867188 96.519531-48.832031 96.519531-103.617188 0-57.34375-46.65625-104-104-104s-104 46.65625-104 104zm104-88c48.519531 0 88 39.480469 88 88 0 47.167969-36.945312 85.726563-84.113281 87.792969l-2.839844.125-25.046875 22.265625v-25.417968l-5.328125-1.886719c-35.097656-12.421875-58.671875-45.734375-58.671875-82.878907 0-48.519531 39.480469-88 88-88zm0 0" fill="#af51bf"/></g><g transform="matrix(0.09572926302481409 -0.011603547215106447 0.011603547215106447 0.09572926302481409 106.59761586292278 -15.76380037721919)" id="L1_1"><path d="m465.105469 186.800781c5.863281-3.503906 6.894531-7.128906 6.894531-10.800781v-32c0-10.457031-12.359375-13.222656-48.121094-19.71875l-.160156-.035156c-1.382812-14.574219-10.582031-27.207032-23.992188-32.917969-2.140624-18.335937-16.726562-32.914063-35.054687-35.054687-6.625-15.539063-22.40625-25.730469-39.960937-24.121094-6.222657-14.351563-20.613282-24.152344-36.710938-24.152344-4.527344 0-8.992188.800781-13.3125 2.382812-7.3125-6.65625-16.75-10.382812-26.6875-10.382812s-19.375 3.726562-26.6875 10.382812c-4.320312-1.582031-8.785156-2.382812-13.3125-2.382812-16.097656 0-30.488281 9.800781-36.710938 24.160156-17.59375-1.625-33.335937 8.574219-39.960937 24.121094-18.328125 2.144531-32.914063 16.71875-35.054687 35.054688-13.410157 5.710937-22.609376 18.34375-23.992188 32.929687l-.152344.03125c-35.761718 6.472656-48.128906 9.246094-48.128906 19.703125v32c0 3.671875 1.03125 7.296875 6.878906 10.792969l-30.566406 107.015625-.3125 2.191406c0 5.558594 0 11.3125 46.488281 23.015625 25.792969 6.496094 56.925781 12.335937 88.625 16.695313-4.519531 12.617187-7.113281 26.136718-7.113281 40.289062 0 66.167969 53.832031 120 120 120s120-53.832031 120-120c0-14.152344-2.59375-27.679688-7.113281-40.296875 31.707031-4.351563 62.832031-10.199219 88.632812-16.695313 46.480469-11.695312 46.480469-17.449218 46.480469-23.007812zm5.734375 78.238281c-5.992188 2.144532-14.390625 4.585938-24.679688 7.144532l-20.398437-74.816406c10.148437-1.574219 18.160156-3.191407 24.359375-4.847657zm-138.03125 26.144532c-21.730469-21.726563-51.730469-35.183594-84.808594-35.183594s-63.078125 13.457031-84.808594 35.183594c-20.863281-2.199219-40.519531-4.917969-58.296875-7.871094l13.410157-80.433594c38.269531 3.273438 84.246093 5.121094 129.695312 5.121094s91.425781-1.847656 129.703125-5.128906l13.410156 80.433594c-17.785156 2.960937-37.441406 5.679687-58.304687 7.878906zm-292.808594-117.574219v-14.824219c10.695312 3.566406 28.390625 6.96875 57.71875 10.136719 41.617188 4.503906 96.386719 7.078125 150.28125 7.078125s108.664062-2.574219 150.28125-7.078125c29.328125-3.167969 47.023438-6.578125 57.71875-10.136719v14.824219c-13.3125 7.933594-95.390625 18.390625-208 18.390625s-194.6875-10.457031-208-18.390625zm57.71875 27.3125c1.480469.15625 3.097656.292969 4.609375.453125l-13.199219 79.175781c-8.496094-1.566406-16.394531-3.167969-23.695312-4.75l20.78125-76.207031c3.632812.445312 7.441406.886719 11.503906 1.328125zm309.152344 79.628906-13.199219-79.175781c1.511719-.152344 3.128906-.296875 4.609375-.453125 4.0625-.441406 7.871094-.882813 11.496094-1.328125l20.78125 76.207031c-7.292969 1.589844-15.191406 3.183594-23.6875 4.75zm11.632812-130.261719c1.574219-3.25 2.839844-6.617187 3.753906-10.042968 7.207032 1.3125 16.726563 3.058594 24.253907 4.800781-6.648438 1.761719-16.136719 3.546875-28.007813 5.242187zm-312.414062-45.449218 6.222656-1.582032-.199219-6.425781c-.023437-.464843-.074219-.886719-.113281-.832031 0-13.230469 10.769531-24 23.480469-24.023438l7.765625.398438 1.609375-6.285156c2.710937-10.648438 12.234375-18.089844 23.144531-18.089844 1.929688 0 4 .335938 6.527344 1.046875l8.234375 2.335937 1.773437-8.375c3.128906-14.792968 20.375-23.847656 34.832032-15.976562l5.863281 3.191406 4.195312-5.191406c4.628907-5.742188 11.40625-9.03125 18.574219-9.03125s13.945312 3.289062 18.574219 9.03125l4.195312 5.191406 5.863281-3.191406c14.4375-7.878906 31.695313 1.183594 34.832032 15.976562l1.773437 8.375 8.234375-2.335937c2.527344-.710937 4.597656-1.046875 6.527344-1.046875 10.910156 0 20.433594 7.441406 23.152344 18.089844l1.609375 6.285156 6.484375-.269531c.425781-.015625.851562-.066407.753906-.105469 13.230469 0 24 10.769531 24.023438 23.449219l-.335938 7.816406 6.222656 1.582031c10.648438 2.710938 18.089844 12.242188 18.089844 23.152344 0 8.40625-4.328125 18.351562-10.542969 24.929688-36.96875 4.039062-88.777343 7.070312-149.457031 7.070312-60.816406 0-112.703125-3.046875-149.6875-7.105469-6.089844-6.542969-10.3125-16.453125-10.3125-24.894531 0-10.910156 7.441406-20.441406 18.089844-23.160156zm-32.378906 35.417968c.898437 3.414063 2.136718 6.78125 3.679687 10.023438-11.824219-1.695312-21.277344-3.480469-27.910156-5.234375 7.527343-1.734375 17.023437-3.480469 24.230469-4.789063zm-3.472657 57.109376-20.398437 74.816406c-10.289063-2.550782-18.679688-4.992188-24.679688-7.136719l20.71875-72.519531c6.199219 1.648437 14.210938 3.273437 24.359375 4.839844zm-53.109375 95.800781 3.640625-12.753907c23.992188 8.355469 73.628907 18.9375 130.023438 25.507813-3.34375 4.621094-6.394531 9.453125-9.066407 14.535156-64.351562-8.527343-111.671874-21.242187-124.597656-27.289062zm230.871094 186.832031c-57.34375 0-104-46.65625-104-104s46.65625-104 104-104 104 46.65625 104 104-46.65625 104-104 104zm106.273438-159.550781c-2.664063-5.082031-5.722657-9.914063-9.066407-14.527344 56.394531-6.570313 106.03125-17.144531 130.023438-25.507813l3.640625 12.753907c-12.925782 6.054687-60.253906 18.761719-124.597656 27.28125zm0 0" fill="#af51bf"/><path d="m176 88h16v16h-16zm0 0" fill="#af51bf"/><path d="m280 40h16v16h-16zm0 0" fill="#af51bf"/><path d="m240 120h16v16h-16zm0 0" fill="#af51bf"/><path d="m304 96h16v16h-16zm0 0" fill="#af51bf"/><path d="m224 64v-16c-4.40625 0-8-3.585938-8-8h-16c0 13.230469 10.769531 24 24 24zm0 0" fill="#af51bf"/><path d="m376 120h-16c0 4.414062-3.59375 8-8 8v16c13.230469 0 24-10.769531 24-24zm0 0" fill="#af51bf"/><path d="m144 144v-16c-4.40625 0-8-3.585938-8-8h-16c0 13.230469 10.769531 24 24 24zm0 0" fill="#af51bf"/><path d="m248 352c13.230469 0 24-10.769531 24-24s-10.769531-24-24-24-24 10.769531-24 24 10.769531 24 24 24zm0-32c4.40625 0 8 3.585938 8 8s-3.59375 8-8 8-8-3.585938-8-8 3.59375-8 8-8zm0 0" fill="#af51bf"/><path d="m214.054688 366.0625c4.539062-4.527344 7.035156-10.558594 7.035156-16.972656 0-6.410156-2.496094-12.441406-7.035156-16.96875-9.367188-9.367188-24.589844-9.359375-33.941407 0-4.527343 4.527344-7.023437 10.558594-7.023437 16.96875 0 6.414062 2.496094 12.4375 7.023437 16.964844 4.679688 4.679687 10.824219 7.023437 16.976563 7.023437 6.140625 0 12.285156-2.34375 16.964844-7.015625zm-22.621094-11.320312c-1.511719-1.503907-2.335938-3.511719-2.335938-5.652344 0-2.136719.832032-4.152344 2.335938-5.65625 1.558594-1.5625 3.605468-2.335938 5.664062-2.335938 2.046875 0 4.09375.773438 5.65625 2.335938 1.511719 1.511718 2.34375 3.519531 2.34375 5.65625 0 2.140625-.832031 4.140625-2.34375 5.652344-3.128906 3.121093-8.21875 3.097656-11.320312 0zm0 0" fill="#af51bf"/><path d="m281.945312 332.121094c-4.539062 4.527344-7.035156 10.558594-7.035156 16.96875 0 6.414062 2.496094 12.445312 7.035156 16.964844 4.679688 4.679687 10.824219 7.015624 16.976563 7.015624 6.140625 0 12.285156-2.335937 16.964844-7.015624 4.527343-4.527344 7.023437-10.550782 7.023437-16.964844 0-6.410156-2.496094-12.441406-7.023437-16.96875-9.375-9.367188-24.589844-9.359375-33.941407 0zm22.621094 22.621094c-3.125 3.128906-8.199218 3.113281-11.320312-.007813-1.503906-1.503906-2.335938-3.503906-2.335938-5.644531 0-2.136719.832032-4.144532 2.347656-5.65625 1.558594-1.5625 3.605469-2.335938 5.664063-2.335938 2.046875 0 4.09375.773438 5.652344 2.335938 1.515625 1.503906 2.347656 3.519531 2.347656 5.65625-.011719 2.132812-.84375 4.140625-2.355469 5.652344zm0 0" fill="#af51bf"/><path d="m248 368c-31.398438 0-56 17.566406-56 40s24.601562 40 56 40 56-17.566406 56-40-24.601562-40-56-40zm0 64c-21.679688 0-40-10.992188-40-24s18.320312-24 40-24 40 10.992188 40 24-18.320312 24-40 24zm0 0" fill="#af51bf"/></g><g transform="matrix(0.09891581707794928 -0.03491146492512088 0.03491146492512088 0.09891581707794928 288.85817711692255 210.46536213445643)" id="L1_2"><path d="m280 128h16v16h-16zm0 0" fill="#af51bf"/><path d="m480 56c0-47.457031-222.519531-48-232-48-23.503906 0-46.496094.703125-68.617188 1.96875-4.367187-6.007812-11.398437-9.96875-19.382812-9.96875-9.273438 0-17.238281 5.34375-21.238281 13.054688-81.394531 8.007812-122.761719 22.441406-122.761719 42.945312v80c0 42.984375 182.542969 47.480469 224 47.945312v17.191407c-13.769531 3.574219-24 16-24 30.863281s10.230469 27.289062 24 30.863281v17.136719h-25.375c-2.105469 0-4.167969-.855469-5.65625-2.34375l-12.6875-12.679688c-5.785156-5.792968-13.464844-8.976562-21.65625-8.976562-16.882812 0-30.625 13.734375-30.625 30.632812 0 8.175782 3.183594 15.863282 8.96875 21.65625l3.71875 3.710938-3.71875 3.71875c-5.785156 5.785156-8.96875 13.472656-8.96875 21.648438 0 16.898437 13.742188 30.632812 30.625 30.632812 8.183594 0 15.871094-3.183594 21.65625-8.976562l12.6875-12.679688c1.496094-1.488281 3.550781-2.34375 5.65625-2.34375h66.75c2.105469 0 4.167969.855469 5.65625 2.34375l12.6875 12.679688c5.785156 5.792968 13.464844 8.976562 21.65625 8.976562 16.882812 0 30.625-13.734375 30.625-30.632812 0-8.175782-3.183594-15.863282-8.96875-21.65625l-3.71875-3.710938 3.71875-3.71875c5.785156-5.785156 8.96875-13.472656 8.96875-21.648438 0-16.898437-13.742188-30.632812-30.625-30.632812-8.183594 0-15.871094 3.183594-21.65625 8.976562l-12.6875 12.679688c-1.496094 1.488281-3.550781 2.34375-5.65625 2.34375h-25.375v-17.136719c13.769531-3.574219 24-16 24-30.863281s-10.230469-27.289062-24-30.863281v-17.136719h24c3.015625 0 5.960938-.3125 8.832031-.847656 66.71875-2.410156 191.167969-11.664063 191.167969-47.152344zm-198.625 240c6.410156 0 12.441406-2.496094 16.96875-7.03125l12.6875-12.6875c2.730469-2.722656 6.488281-4.28125 10.34375-4.28125 8.066406 0 14.625 6.558594 14.625 14.632812 0 3.902344-1.519531 7.582032-4.28125 10.34375l-15.03125 15.023438 15.03125 15.023438c2.761719 2.769531 4.28125 6.441406 4.28125 10.34375 0 8.074218-6.558594 14.632812-14.625 14.632812-3.847656 0-7.613281-1.558594-10.34375-4.289062l-12.6875-12.679688c-4.527344-4.535156-10.558594-7.03125-16.96875-7.03125h-66.75c-6.410156 0-12.441406 2.496094-16.96875 7.03125l-12.6875 12.6875c-2.730469 2.722656-6.488281 4.28125-10.34375 4.28125-8.066406 0-14.625-6.558594-14.625-14.632812 0-3.902344 1.519531-7.582032 4.28125-10.34375l15.03125-15.023438-15.03125-15.023438c-2.761719-2.769531-4.28125-6.441406-4.28125-10.34375 0-8.074218 6.558594-14.632812 14.625-14.632812 3.847656 0 7.613281 1.558594 10.34375 4.289062l12.6875 12.679688c4.527344 4.535156 10.558594 7.03125 16.96875 7.03125zm182.640625-240.128906c-3.023437 11.21875-79.871094 32.128906-216.015625 32.128906-23.113281 0-44.375-.640625-64-1.695312v-60.527344c20.703125-1.121094 42.097656-1.777344 64-1.777344 136.144531 0 212.992188 20.910156 216.015625 31.871094zm-184.015625 48.128906c17.648438 0 32 14.351562 32 32 0 15.519531-11.113281 28.472656-25.792969 31.375-12.207031.367188-24.839843.625-38.207031.625-11.113281 0-21.679688-.183594-32-.449219v-23.550781h48v-16h-48v-24.558594c17.769531.527344 29.9375.558594 32 .558594zm-80-1.128906v64.21875c-5.503906-.21875-10.742188-.503906-16-.785156v-64.191407c5.542969.292969 10.921875.550781 16 .757813zm-40-86.871094c4.414062 0 8 3.59375 8 8v61.3125c-5.480469-.382812-10.832031-.785156-16-1.234375v-60.078125c0-4.40625 3.585938-8 8-8zm-24 13.425781v53.140625c-65.648438-6.941406-101.878906-18.957031-104-26.414062v-.054688c1.558594-5.503906 29.214844-18.867187 104-26.671875zm-104 106.574219v-60.3125c27.742188 15.152344 86.617188 22.199219 136 25.472656v64.152344c-85.863281-5.976562-133.648438-20.632812-136-29.3125zm232 96c0 5.894531-3.238281 11-8 13.777344v-13.777344h-16v13.777344c-4.761719-2.777344-8-7.882813-8-13.777344 0-8.824219 7.175781-16 16-16s16 7.175781 16 16zm53.382812-65.960938c6.625-8.230468 10.617188-18.671874 10.617188-30.039062 0-13.265625-5.40625-25.289062-14.144531-33.984375 51.730469-2.824219 119.695312-9.695313 150.144531-26.328125l.007812 60.183594c-2.457031 9.136718-53.976562 24.714844-146.625 30.167968zm0 0" fill="#af51bf"/><path d="m48 104h16v16h-16zm0 0" fill="#af51bf"/><path d="m88 120h16v16h-16zm0 0" fill="#af51bf"/><path d="m128 128h16v16h-16zm0 0" fill="#af51bf"/><path d="m432 224v-8h-16v8c0 13.230469-10.769531 24-24 24h-8v16h8c13.230469 0 24 10.769531 24 24v8h16v-8c0-13.230469 10.769531-24 24-24h8v-16h-8c-13.230469 0-24-10.769531-24-24zm-8 40.246094c-2.335938-3.140625-5.105469-5.910156-8.246094-8.246094 3.140625-2.335938 5.910156-5.105469 8.246094-8.246094 2.335938 3.140625 5.105469 5.910156 8.246094 8.246094-3.140625 2.335938-5.910156 5.105469-8.246094 8.246094zm0 0" fill="#af51bf"/><path d="m416 184h16v16h-16zm0 0" fill="#af51bf"/><path d="m416 312h16v16h-16zm0 0" fill="#af51bf"/><path d="m480 248h16v16h-16zm0 0" fill="#af51bf"/><path d="m352 248h16v16h-16zm0 0" fill="#af51bf"/><path d="m80 352v-8h-16v8c0 13.230469-10.769531 24-24 24h-8v16h8c13.230469 0 24 10.769531 24 24v8h16v-8c0-13.230469 10.769531-24 24-24h8v-16h-8c-13.230469 0-24-10.769531-24-24zm-8 40.246094c-2.335938-3.140625-5.105469-5.910156-8.246094-8.246094 3.140625-2.335938 5.910156-5.105469 8.246094-8.246094 2.335938 3.140625 5.105469 5.910156 8.246094 8.246094-3.140625 2.335938-5.910156 5.105469-8.246094 8.246094zm0 0" fill="#af51bf"/><path d="m64 312h16v16h-16zm0 0" fill="#af51bf"/><path d="m64 440h16v16h-16zm0 0" fill="#af51bf"/><path d="m128 376h16v16h-16zm0 0" fill="#af51bf"/><path d="m0 376h16v16h-16zm0 0" fill="#af51bf"/></g><g transform="matrix(0.09427825441150464 0.02356956355181548 -0.02356956355181548 0.09427825441150464 104.60917309951753 106.6992465843526)" id="L1_3"><path d="m123.617188 137.0625c0 4.417969-3.582032 8-8 8-4.417969 0-8-3.582031-8-8s3.582031-8 8-8c4.417968 0 8 3.582031 8 8zm0 0" fill="#af51bf"/><path d="m219.617188 137.0625c0 4.417969-3.582032 8-8 8-4.417969 0-8-3.582031-8-8s3.582031-8 8-8c4.417968 0 8 3.582031 8 8zm0 0" fill="#af51bf"/><path d="m442.648438 105.0625c-6.671876 0-12.945313 2.601562-17.65625 7.3125l-7.152344 7.152344c-45.28125 45.28125-70.222656 105.496094-70.222656 169.535156 0 32.578125-24.480469 59.488281-56 63.449219v-12.214844c0-30.609375-11.992188-59.394531-33.28125-80.761719l7.839843-5.222656c10-6.664062 17.464844-16.152344 21.640625-27.015625 11.0625 3.472656 21.863282 7.75 32.230469 12.933594l7.160156-14.308594c-11.527343-5.761719-23.550781-10.515625-35.878906-14.304687.128906-1.617188.289063-3.21875.289063-4.847657 0-12.296875-4.066407-24.480469-11.449219-34.3125l-4.207031-5.601562c15.558593-3.765625 31.550781-5.792969 47.65625-5.792969v-16c-16.203126 0-32.289063 1.921875-48 5.457031v-5.457031c0-6.496094-.671876-12.832031-1.746094-19.03125 26.921875-32.359375 41.746094-73.351562 41.746094-115.445312v-10.585938l-22.167969 2.769531c-33.210938 4.152344-64.59375 17.078125-91.167969 37.320313-12.074219-4.464844-25.058594-7.027344-38.664062-7.027344-13.609376 0-26.59375 2.5625-38.664063 7.027344-26.578125-20.234375-57.960937-33.167969-91.167969-37.320313l-22.167968-2.769531v10.585938c0 42.09375 14.824218 83.085937 41.742187 115.445312-1.070313 6.199219-1.742187 12.535156-1.742187 19.03125v5.457031c-15.714844-3.535156-31.800782-5.457031-48-5.457031v16c16.101562 0 32.09375 2.027344 47.65625 5.785156l-4.210938 5.601563c-7.382812 9.839843-11.445312 22.023437-11.445312 34.320312 0 1.628907.167968 3.230469.292968 4.839844-12.324218 3.789063-24.351562 8.542969-35.878906 14.300781l7.160156 14.3125c10.359375-5.183594 21.167969-9.453125 32.234375-12.933594 4.175781 10.871094 11.636719 20.351563 21.636719 27.015626l7.839844 5.222656c-21.292969 21.367187-33.285156 50.152344-33.285156 80.761718v74.886719c0 7.984375-4.441407 15.160157-11.578126 18.726563-12.597656 6.304687-20.421874 18.96875-20.421874 33.050781v6.109375c0 8.824219 7.175781 16 16 16h88c13.230468 0 24-10.765625 24-24v-8h64v8c0 13.234375 10.765624 24 24 24h88c8.824218 0 16-7.175781 16-16v-6.109375c0-14.082031-7.824219-26.746094-20.425782-33.042969-7.136718-3.574218-11.574218-10.75-11.574218-18.734375v-14.519531c58.023437-4.128906 104-52.535156 104-111.59375 0-49.453125 19.253906-95.941406 54.222656-130.910156l10.464844-10.464844c4.710937-4.710938 7.3125-10.984375 7.3125-17.65625 0-13.765625-11.203126-24.96875-24.96875-24.96875zm-36.113282 52.195312 13.863282 10.398438c-3.566407 4.695312-6.902344 9.527344-10.023438 14.480469l-13.664062-10.25c3.082031-4.992188 6.34375-9.871094 9.824218-14.628907zm-40.640625 99.804688h16.273438c-.839844 5.28125-1.457031 10.625-1.878907 16h-16.058593c.386719-5.367188.914062-10.710938 1.664062-16zm-90.277343 83.226562v12.773438h-32c-4.410157 0-8-3.589844-8-8 0-4.40625 3.589843-8 8-8h31.816406c.039062 1.082031.183594 2.144531.183594 3.226562zm-18.320313-99.296874-10.175781 6.792968c-5.007813 3.335938-10.210938 6.261719-15.519532 8.957032 2.628907-7.574219 4.015626-15.582032 4.015626-23.679688 0-5.375-.640626-10.605469-1.761719-15.648438 12.921875.714844 25.785156 2.5625 38.390625 5.53125-3.09375 7.222657-8.191406 13.542969-14.949219 18.046876zm-138.578125 25.199218c-7.070312-9.582031-11.101562-21.144531-11.101562-33.128906 0-20.542969 11.152343-38.496094 27.695312-48.238281l.664062 2.65625c2.496094 10.015625 10.121094 17.574219 19.640626 20.359375v25.222656c0 4.410156-3.59375 8-8 8-4.410157 0-8-3.589844-8-8h-16c0 13.234375 10.765624 24 24 24 6.167968 0 11.742187-2.40625 16-6.238281 4.253906 3.839843 9.832031 6.238281 16 6.238281 13.230468 0 24-10.765625 24-24h-16c0 4.410156-3.59375 8-8 8-4.410157 0-8-3.589844-8-8v-25.222656c9.519531-2.785156 17.144531-10.34375 19.640624-20.359375l.664063-2.65625c16.542969 9.742187 27.695313 27.695312 27.695313 48.238281 0 12.097656-3.875 23.449219-10.984376 33.089844-14.472656 4.535156-29.609374 6.910156-45.015624 6.910156-15.359376 0-30.464844-2.359375-44.898438-6.871094zm44.898438-73.128906c-5.746094 0-10.730469-3.886719-12.121094-9.460938l-1.214844-4.867187c4.285156-1.054687 8.734375-1.671875 13.335938-1.671875 4.597656 0 9.054687.617188 13.335937 1.671875l-1.21875 4.867187c-1.390625 5.574219-6.375 9.460938-12.117187 9.460938zm103.757812-11c5.3125 7.082031 8.242188 15.847656 8.242188 24.707031 0 .183594-.03125.351563-.03125.535157-15.570313-3.648438-31.507813-5.632813-47.480469-6.058594-2.121094-4.285156-4.648438-8.324219-7.546875-12.078125l2.410156-1.375c11.671875-6.671875 23.96875-12.121094 36.65625-16.335938v.277344zm-18.207031-109.125c13.910156-9.769531 29.335937-17.488281 45.480469-22.832031-5.015626 20.222656-13.769532 39.421875-25.992188 56.460937-4.550781-12.367187-11.136719-23.742187-19.488281-33.628906zm46.273437-54.289062 4-.496094c-.21875 4.75-.679687 9.480468-1.304687 14.183594-21.5625 6.023437-42.175781 15.929687-60.328125 29.0625-5.824219-5.167969-12.152344-9.757813-18.960938-13.636719 22.792969-15.65625 49.023438-25.664063 76.59375-29.113281zm-263.648437 0c27.566406 3.449218 53.792969 13.457031 76.589843 29.105468-6.808593 3.878906-13.136718 8.46875-18.957031 13.636719-18.152343-13.125-38.769531-23.039063-60.328125-29.0625-.625-4.695313-1.089844-9.425781-1.304687-14.183594zm.792969 31.457031c16.140624 5.34375 31.566406 13.0625 45.476562 22.832031-8.351562 9.886719-14.933594 21.261719-19.488281 33.628906-12.222657-17.039062-20.972657-36.238281-25.988281-56.460937zm35.03125 94.957031c0-38.648438 23.007812-71.949219 56-87.160156v47.160156h16v-52.839844c5.183593-1.34375 10.519531-2.292968 16-2.75v55.589844h16v-55.589844c5.480468.457032 10.816406 1.414063 16 2.75v52.839844h16v-47.160156c32.992187 15.210937 56 48.511718 56 87.160156v9.699219c-15.472657 4.726562-30.464844 11.070312-44.59375 19.140625l-5.945313 3.394531c-12.40625-10.136719-28.230469-16.234375-45.460937-16.234375-17.234376 0-33.058594 6.097656-45.464844 16.234375l-5.945313-3.394531c-14.128906-8.070313-29.117187-14.40625-44.589843-19.140625zm-16 61.707031c0-8.847656 2.925781-17.625 8.238281-24.707031l7.761719-10.328125v-.277344c12.6875 4.214844 24.976562 9.664063 36.65625 16.335938l2.40625 1.375c-2.894532 3.753906-5.421876 7.792969-7.542969 12.078125-15.96875.425781-31.90625 2.417968-47.480469 6.058594-.007812-.183594-.039062-.359376-.039062-.535157zm3.367187 16.175781c12.609375-2.96875 25.472656-4.816406 38.390625-5.53125-1.117188 5.042969-1.757812 10.273438-1.757812 15.648438 0 8.128906 1.414062 16.128906 4.054687 23.699219-5.320313-2.699219-10.542969-5.632813-15.550781-8.976563l-10.175782-6.792968c-6.769531-4.503907-11.867187-10.824219-14.960937-18.046876zm3.214844 82.117188h33.417969c4.40625 0 8 3.59375 8 8 0 4.410156-3.59375 8-8 8h-38.007813c1.078125-5.488281 2.605469-10.824219 4.589844-16zm57.417969 104h-24c-4.410157 0-8-3.589844-8-8 0-4.40625 3.589843-8 8-8h24.117187c-.039063.769531-.117187 1.53125-.117187 2.304688zm16 32v-45.695312c0-17.917969 14.550781-33.3125 32-34.304688 17.648437 0 32 14.351562 32 32v48zm80-32h24c4.40625 0 8 3.59375 8 8 0 4.410156-3.59375 8-8 8h-24zm84.421874 39.160156c7.136719 3.570313 11.578126 10.746094 11.578126 18.730469v6.109375h-88c-4.410157 0-8-3.589844-8-8v-24h24c13.230468 0 24-10.765625 24-24 0-13.230469-10.769532-24-24-24h-24c0-26.460938-21.519532-47.992188-48.425782-47.992188-.007812 0-.015625 0-.023437 0-19.824219 1.113282-36.832031 14.289063-43.960938 31.992188h-27.589843c-13.234376 0-24 10.769531-24 24 0 13.234375 10.765624 24 24 24h24v40c0 4.410156-3.59375 8-8 8h-88v-6.109375c0-7.984375 4.4375-15.160156 11.574218-18.730469 12.601563-6.300781 20.425782-18.964844 20.425782-33.046875v-74.886719c0-1.089843.144531-2.144531.183593-3.226562h39.816407c13.230468 0 24-10.765625 24-24 0-13.230469-10.769532-24-24-24h-25.632813c4.648437-7.628906 10.421875-14.589844 17.113281-20.804688 24.613282 13.621094 52.167969 20.804688 80.519532 20.804688 28.351562 0 55.902343-7.183594 80.519531-20.804688 15.277343 14.207032 25.503906 32.589844 29.488281 52.804688h-30.007812c-13.234376 0-24 10.769531-24 24 0 13.234375 10.765624 24 24 24h32v46.113281c0 14.082031 7.824218 26.746094 20.421874 33.046875zm-4.421874-79.566406c9.789062-.976562 19.023437-3.792969 27.453124-7.992188l8.953126 13.425782c-11.054688 5.796875-23.359376 9.476562-36.40625 10.566406zm49.886718-3.191406-8.871094-13.3125c3.503907-2.726563 6.757813-5.746094 9.765626-9.007813l11.304687 11.304688c-3.75 4.023437-7.824219 7.695312-12.199219 11.015625zm22.207032-23.617188-11.621094-11.625c7.261718-12.046875 11.527344-26.09375 11.527344-41.160156h16c0 19.496094-5.882813 37.625-15.90625 52.785156zm21.65625-100.785156h-16.558594c4.183594-19.246094 10.871094-37.765625 19.925781-55.160156l13.585937 10.1875c-7.441406 14.246094-13.128906 29.316406-16.953124 44.972656zm63.625-104.6875-10.464844 10.464844c-2.742188 2.746094-5.375 5.574218-7.941406 8.457031l-14.121094-10.59375c4.03125-4.757813 8.230468-9.40625 12.6875-13.863281l7.152344-7.152344c1.695312-1.6875 3.941406-2.625 6.34375-2.625 4.945312 0 8.96875 4.027344 8.96875 8.96875 0 2.402344-.9375 4.648438-2.625 6.34375zm0 0" fill="#af51bf"/></g><g transform="matrix(0.09202095365535072 -0.02968417832508987 0.02968417832508987 0.09202095365535072 145.2381906812808 193.94679525752383)" id="L1_4"><path d="m205.089844 110.222656c12.191406-12.191406 18.910156-28.40625 18.910156-45.65625 0-35.597656-28.96875-64.566406-64.566406-64.566406-17.242188 0-33.464844 6.71875-45.65625 18.910156l-1.777344 1.777344-1.777344-1.777344c-12.191406-12.191406-28.40625-18.910156-45.65625-18.910156-35.597656 0-64.566406 28.96875-64.566406 64.566406 0 17.25 6.71875 33.464844 18.910156 45.65625l29.089844 29.089844v217.375l-29.089844 29.089844c-12.191406 12.191406-18.910156 28.40625-18.910156 45.65625 0 35.597656 28.96875 64.566406 64.566406 64.566406 17.242188 0 33.464844-6.71875 45.65625-18.910156l1.777344-1.777344 1.777344 1.777344c12.191406 12.191406 28.40625 18.910156 45.65625 18.910156 35.597656 0 64.566406-28.96875 64.566406-64.566406 0-17.25-6.71875-33.464844-18.910156-45.65625l-29.089844-29.089844v-217.375zm-14.960938 358.808594-137.65625-94.191406 11.527344-11.527344v-1.847656l140.273438 88.589844c-3.105469 7.441406-7.992188 13.945312-14.144532 18.976562zm-170.402344-18.976562 59.457032-37.550782 18.648437 12.761719-63.960937 43.765625c-6.152344-5.03125-11.039063-11.535156-14.144532-18.976562zm14.144532-423.085938 63.960937 43.765625-18.648437 12.761719-59.457032-37.550782c3.105469-7.441406 7.992188-13.945312 14.144532-18.976562zm156.257812 0c6.152344 5.03125 11.039063 11.535156 14.144532 18.96875l-140.273438 88.597656v-1.847656l-11.527344-11.527344zm-108.359375 326.792969 29.933594-20.480469 30.21875 20.679688-29.921875 18.894531zm78.230469-138.617188v20.421875l-96-60.628906v-21.480469l3.039062-1.921875zm-92.960938 129.3125-3.039062-1.921875v-21.480468l96-60.628907v20.421875zm82.671876-96.457031-37.695313 23.808594-37.695313-23.808594 37.695313-23.808594zm-85.710938-54.128906 33.03125 20.855468-33.03125 20.867188zm0 66.535156 33.03125 20.867188-33.03125 20.855468zm96 82.128906-3.34375 2.113282-30.785156-21.0625 34.128906-23.355469zm-34.128906-170.121094 30.785156-21.0625 3.34375 2.113282v42.304687zm-14.167969-9.695312-29.933594-20.480469 30.230469-19.09375 29.921875 18.894531zm15.28125 219.601562 33.015625-20.855468v1.847656l11.527344 11.527344-27.0625 18.519531zm33.015625-249.632812v1.847656l-33.015625-20.847656 17.480469-11.039062 27.0625 18.519531zm33.777344-33.777344-10.738282 10.738282-23.839843-16.3125 48.703125-30.761719c.027344.671875.097656 1.320312.097656 1.992187 0 12.976563-5.054688 25.167969-14.222656 34.34375zm-94.867188-68.6875 13.089844 13.089844 13.089844-13.089844c9.167968-9.175781 21.375-14.222656 34.34375-14.222656 5.214844 0 10.222656.847656 14.933594 2.375l-62.367188 42.671875-62.367188-42.671875c4.710938-1.527344 9.726563-2.375 14.933594-2.375 12.96875 0 25.175782 5.046875 34.34375 14.222656zm-82.910156 34.34375c0-.671875.070312-1.328125.105469-1.992187l48.703125 30.761719-23.839844 16.3125-10.738281-10.738282c-9.175781-9.175781-14.230469-21.367187-14.230469-34.34375zm14.222656 332.523438 10.738282-10.738282 23.839843 16.3125-48.703125 30.761719c-.027344-.671875-.097656-1.320312-.097656-1.992187 0-12.976563 5.054688-25.167969 14.222656-34.34375zm94.867188 68.6875-13.089844-13.089844-13.089844 13.089844c-9.167968 9.175781-21.375 14.222656-34.34375 14.222656-5.214844 0-10.222656-.847656-14.933594-2.375l62.367188-42.671875 62.367188 42.671875c-4.710938 1.527344-9.726563 2.375-14.933594 2.375-12.96875 0-25.175782-5.046875-34.34375-14.222656zm82.910156-34.34375c0 .671875-.070312 1.328125-.105469 1.992187l-48.695312-30.761719 23.839843-16.3125 10.738282 10.738282c9.167968 9.175781 14.222656 21.367187 14.222656 34.34375zm0 0" fill="#af51bf"/><path d="m344 208h16v16h-16zm0 0" fill="#af51bf"/><path d="m456 112v-16h-16.40625c-1.65625-18.265625-8.890625-34.929688-20.007812-48.273438l11.613281-11.613281-11.3125-11.3125-11.613281 11.613281c-13.34375-11.125-30.007813-18.351562-48.273438-20.007812v-16.40625h-16v16.40625c-18.265625 1.65625-34.929688 8.890625-48.273438 20.007812l-11.613281-11.613281-11.3125 11.3125 11.613281 11.613281c-11.125 13.335938-18.351562 30.007813-20.007812 48.273438h-16.40625v16h16.40625c1.65625 18.265625 8.890625 34.929688 20.007812 48.273438l-11.613281 11.613281 11.3125 11.3125 11.613281-11.613281c4.984376 4.148437 10.449219 7.71875 16.273438 10.703124v131.429688c-5.816406 2.984375-11.289062 6.554688-16.273438 10.707031l-11.613281-11.617187-11.3125 11.3125 11.613281 11.613281c-11.125 13.335937-18.351562 30.007813-20.007812 48.273437h-16.40625v16h16.40625c1.65625 18.265626 8.890625 34.929688 20.007812 48.273438l-11.613281 11.613281 11.3125 11.3125 11.613281-11.613281c13.335938 11.125 30.007813 18.351562 48.273438 20.007812v16.398438h16v-16.40625c18.265625-1.65625 34.929688-8.890625 48.273438-20.007812l11.613281 11.613281 11.3125-11.3125-11.613281-11.613281c11.125-13.335938 18.351562-30.007813 20.007812-48.273438h16.40625v-16h-16.40625c-1.65625-18.265625-8.890625-34.929688-20.007812-48.273438l11.613281-11.613281-11.3125-11.3125-11.613281 11.613281c-4.984376-4.148437-10.449219-7.71875-16.273438-10.703124v-131.421876c5.816406-2.984374 11.289062-6.554687 16.273438-10.703124l11.613281 11.613281 11.3125-11.3125-11.613281-11.613281c11.125-13.335938 18.351562-30.007813 20.007812-48.273438zm-32 280c0 39.695312-32.296875 72-72 72s-72-32.304688-72-72 32.296875-72 72-72 72 32.304688 72 72zm-48-84.59375c-7.640625-2.167969-15.671875-3.40625-24-3.40625s-16.359375 1.238281-24 3.40625v-118.8125c7.640625 2.167969 15.671875 3.40625 24 3.40625s16.359375-1.238281 24-3.40625zm-24-131.40625c-39.703125 0-72-32.304688-72-72s32.296875-72 72-72 72 32.304688 72 72-32.296875 72-72 72zm0 0" fill="#af51bf"/><path d="m320 72h16v16h-16zm0 0" fill="#af51bf"/><path d="m368 72h16v16h-16zm0 0" fill="#af51bf"/><path d="m320 120h16v16h-16zm0 0" fill="#af51bf"/><path d="m368 120h16v16h-16zm0 0" fill="#af51bf"/><path d="m344 272h16v16h-16zm0 0" fill="#af51bf"/><path d="m320 360h16v16h-16zm0 0" fill="#af51bf"/><path d="m368 360h16v16h-16zm0 0" fill="#af51bf"/><path d="m320 408h16v16h-16zm0 0" fill="#af51bf"/><path d="m368 408h16v16h-16zm0 0" fill="#af51bf"/></g><g transform="matrix(0.10219902417654411 -0.01381067871679188 0.01381067871679188 0.10219902417654411 -20.698483940694015 -1.6274164376965707)" id="L1_5"><path d="M247.949,182.841c-6.462-9.806-24.301-28.981-53.021-56.996c-12.624-12.313-29.287-19.093-46.926-19.093    c-0.009,0-0.02,0-0.028,0c-17.649,0.008-34.318,6.803-46.937,19.134c-28.574,27.923-46.354,47.088-52.85,56.965    c-6.741,10.257-14.338,24.68-13.23,45.344c0.874,16.327,7.786,31.658,19.464,43.168c11.879,11.709,27.402,18.157,43.71,18.157    c18.916,0,34.932-11.297,45.036-20.774c2.7-2.533,6.77-2.501,9.465,0.073c14.18,13.543,29.874,20.701,45.385,20.701    c16.306,0,31.829-6.448,43.709-18.157c11.677-11.511,18.589-26.841,19.463-43.17C262.306,207.248,254.168,192.279,247.949,182.841    z M241.217,227.125c-1.251,23.376-20.63,42.394-43.2,42.394c-12.971,0-24.328-8.246-31.572-15.164    c-5.202-4.967-11.9-7.454-18.598-7.454c-6.6,0-13.201,2.417-18.361,7.255c-7.472,7.008-18.977,15.362-31.355,15.362    c-22.571,0-41.952-19.017-43.203-42.395c-0.63-11.741,2.352-21.697,9.97-33.286c3.212-4.883,13.994-18.347,50.117-53.649    c18.173-17.758,47.757-17.77,65.948-0.027c36.314,35.422,47.093,48.839,50.286,53.684    C238.864,205.402,241.845,215.355,241.217,227.125z" fill="#af51bf"/><g><path d="M109.509,173.886c-21.182,21.554-26.711,29.131-27.903,30.944c-5.288,8.044-7.105,13.796-6.708,21.223     c0.687,12.816,11.013,23.342,23.019,23.466c0.035,0.001,0.07,0.001,0.105,0.001c5.475,0,9.941-4.41,9.998-9.897     c0.057-5.523-4.374-10.046-9.896-10.103c-1.058-0.011-3.111-1.889-3.253-4.536c-0.105-1.945-0.195-3.625,3.441-9.156     c0.172-0.258,4.465-6.556,25.462-27.923c3.871-3.94,3.816-10.271-0.123-14.142C119.711,169.892,113.38,169.947,109.509,173.886z" fill="#af51bf"/><path d="M214.547,204.847c-1.636-2.481-9.467-12.015-27.399-30.342c-3.863-3.948-10.195-4.016-14.142-0.154     c-3.947,3.863-4.016,10.194-0.154,14.142c18.827,19.243,24.596,26.839,25.072,27.478c3.543,5.403,3.454,7.079,3.35,9.017     c-0.14,2.618-2.225,4.532-3.257,4.532c-5.523,0-10,4.477-10,10c0,5.523,4.477,10,10,10c12.115,0,22.536-10.525,23.229-23.465     C221.639,218.705,219.761,212.76,214.547,204.847z" fill="#af51bf"/></g><path d="M103.137,0C79.555,0,60.369,24.214,60.369,53.978c0,29.762,19.186,53.976,42.768,53.976    c23.579,0,42.762-24.214,42.763-53.977C145.9,24.214,126.717,0,103.137,0z M103.137,87.953c-12.342,0-22.768-15.559-22.768-33.976    S90.796,20,103.137,20c12.339,0,22.762,15.56,22.763,33.977C125.9,72.393,115.476,87.953,103.137,87.953z" fill="#af51bf"/><path d="M193.011,0c-23.582,0-42.767,24.214-42.768,53.978c0,29.762,19.186,53.976,42.768,53.976    c23.58,0,42.763-24.214,42.763-53.977S216.591,0,193.011,0z M193.011,87.953c-12.342,0-22.768-15.559-22.768-33.976    S180.67,20,193.011,20c12.339,0,22.763,15.56,22.763,33.977C215.774,72.393,205.35,87.953,193.011,87.953z" fill="#af51bf"/><path d="M268.461,72.686c-10.026-1.975-20.148,1.055-28.506,8.529c-7.576,6.775-12.965,16.688-15.175,27.913    c-2.209,11.216-0.978,22.427,3.465,31.566c4.902,10.084,13.123,16.724,23.145,18.697c1.998,0.394,3.998,0.588,5.989,0.588    c7.993,0,15.815-3.134,22.509-9.116c7.582-6.775,12.973-16.682,15.181-27.897C299.856,98.652,288.169,76.566,268.461,72.686z     M275.444,119.102c-1.372,6.972-4.527,12.954-8.884,16.847c-2.529,2.259-6.546,4.756-11.307,3.818    c-4.771-0.939-7.539-4.77-9.021-7.818c-2.553-5.251-3.203-11.983-1.83-18.958c1.375-6.984,4.53-12.974,8.884-16.867    c2.151-1.923,5.38-4.018,9.237-4.018c0.673,0,1.366,0.064,2.072,0.202h0.001C273.155,93.993,278.021,106.013,275.444,119.102z" fill="#af51bf"/><path d="M71.362,109.129c-2.21-11.225-7.599-21.139-15.175-27.913c-8.358-7.474-18.481-10.502-28.506-8.529h0.001    c-19.707,3.88-31.394,25.966-26.607,50.28c2.208,11.215,7.599,21.122,15.181,27.897c6.695,5.982,14.515,9.116,22.508,9.115    c1.99,0,3.992-0.195,5.988-0.587c10.023-1.973,18.243-8.614,23.145-18.697C72.34,131.556,73.571,120.345,71.362,109.129z     M49.91,131.95c-1.481,3.048-4.249,6.879-9.021,7.818c-4.762,0.939-8.778-1.559-11.307-3.818    c-4.356-3.893-7.512-9.876-8.884-16.847c-2.577-13.089,2.289-25.109,10.848-26.794c0.709-0.14,1.401-0.203,2.074-0.203    c3.857,0,7.086,2.095,9.236,4.019c4.354,3.893,7.509,9.883,8.884,16.867C53.113,119.967,52.463,126.699,49.91,131.95z" fill="#af51bf"/><path d="M463.807,405.321c-6.462-9.805-24.301-28.981-53.021-56.995c-12.624-12.314-29.287-19.094-46.926-19.094    c-0.008,0-0.019,0-0.028,0c-17.649,0.008-34.319,6.803-46.937,19.134c-28.574,27.922-46.355,47.088-52.851,56.965    c-6.742,10.257-14.338,24.68-13.231,45.344c0.874,16.327,7.786,31.658,19.464,43.168C282.156,505.552,297.679,512,313.987,512    c18.916,0,34.932-11.297,45.037-20.775c2.656-2.491,6.813-2.458,9.465,0.074C382.669,504.842,398.363,512,413.873,512    c16.307,0,31.829-6.448,43.711-18.157c11.677-11.51,18.59-26.841,19.464-43.17C478.165,429.729,470.026,414.76,463.807,405.321z     M457.074,449.605C455.822,472.982,436.442,492,413.873,492c-12.969,0-24.327-8.247-31.571-15.165    c-5.202-4.967-11.9-7.454-18.598-7.454c-6.601,0-13.201,2.416-18.362,7.257C337.869,483.646,326.364,492,313.987,492    c-22.571,0-41.952-19.018-43.203-42.396c-0.63-11.741,2.353-21.697,9.97-33.286c3.213-4.884,13.995-18.349,50.118-53.649    c18.173-17.758,47.757-17.771,65.947-0.027c36.314,35.422,47.093,48.839,50.286,53.684    C454.721,427.883,457.702,437.836,457.074,449.605z" fill="#af51bf"/><g><path d="M430.405,427.331c-1.632-2.478-9.46-12.008-27.401-30.345c-3.864-3.947-10.195-4.017-14.142-0.154     c-3.948,3.862-4.017,10.193-0.154,14.141c18.834,19.249,24.598,26.841,25.071,27.477c3.544,5.403,3.455,7.08,3.351,9.018     c-0.14,2.618-2.225,4.532-3.257,4.532c-5.523,0-10,4.477-10,10s4.477,10,10,10c12.116,0,22.536-10.525,23.229-23.465     C437.494,441.185,435.616,435.24,430.405,427.331z" fill="#af51bf"/><path d="M325.366,396.366c-21.169,21.541-26.706,29.126-27.903,30.944c-5.288,8.044-7.105,13.796-6.708,21.223     c0.686,12.816,11.012,23.342,23.018,23.466c0.035,0.001,0.07,0.001,0.105,0.001c5.475,0,9.941-4.41,9.999-9.897     c0.057-5.523-4.374-10.046-9.896-10.103c-1.058-0.011-3.111-1.889-3.253-4.536c-0.105-1.944-0.195-3.625,3.439-9.153     c0.172-0.258,4.465-6.557,25.464-27.926c3.871-3.94,3.816-10.271-0.123-14.142C335.568,392.372,329.237,392.427,325.366,396.366z     " fill="#af51bf"/></g><path d="M318.993,222.48c-23.583,0-42.768,24.214-42.768,53.977s19.186,53.977,42.768,53.977c23.58,0,42.763-24.214,42.763-53.977    S342.573,222.48,318.993,222.48z M318.993,310.434c-12.342,0-22.768-15.56-22.768-33.977s10.427-33.977,22.768-33.977    c12.339,0,22.763,15.56,22.763,33.977S331.332,310.434,318.993,310.434z" fill="#af51bf"/><path d="M408.868,222.48c-23.582,0-42.768,24.214-42.768,53.977s19.186,53.977,42.768,53.977    c23.579,0,42.763-24.214,42.763-53.977S432.448,222.48,408.868,222.48z M408.868,310.434c-12.342,0-22.768-15.56-22.768-33.977    s10.427-33.977,22.768-33.977c12.338,0,22.763,15.56,22.763,33.977S421.207,310.434,408.868,310.434z" fill="#af51bf"/><path d="M484.318,295.166c-10.027-1.974-20.148,1.055-28.506,8.529c-7.576,6.775-12.965,16.688-15.175,27.913    c-2.209,11.216-0.978,22.427,3.465,31.566c4.902,10.084,13.122,16.724,23.145,18.697c1.997,0.394,3.997,0.588,5.989,0.588    c7.992-0.001,15.815-3.134,22.508-9.116c7.581-6.774,12.973-16.681,15.181-27.896    C515.713,321.132,504.025,299.046,484.318,295.166z M491.302,341.583c-1.372,6.97-4.528,12.953-8.884,16.846    c-2.529,2.26-6.544,4.757-11.308,3.818c-4.772-0.939-7.539-4.77-9.021-7.818c-2.553-5.251-3.203-11.983-1.83-18.958    c1.375-6.984,4.53-12.974,8.884-16.867c2.151-1.923,5.38-4.018,9.237-4.018c0.673,0,1.366,0.064,2.074,0.203    C489.012,316.474,493.879,328.494,491.302,341.583z" fill="#af51bf"/><path d="M287.22,331.609c-2.21-11.225-7.599-21.139-15.175-27.913c-8.358-7.474-18.484-10.503-28.506-8.529    c-19.707,3.88-31.395,25.967-26.607,50.281c2.208,11.214,7.599,21.121,15.181,27.896c6.693,5.981,14.515,9.115,22.507,9.115    c1.991,0,3.992-0.194,5.989-0.587c10.023-1.973,18.244-8.613,23.146-18.697C288.198,354.036,289.428,342.825,287.22,331.609z     M265.767,354.429c-1.482,3.048-4.25,6.879-9.022,7.818c-4.767,0.938-8.779-1.559-11.307-3.818    c-4.356-3.892-7.511-9.875-8.884-16.846c-2.577-13.089,2.289-25.109,10.848-26.794h0.001c0.709-0.139,1.401-0.203,2.074-0.203    c3.856,0,7.086,2.095,9.236,4.018c4.354,3.893,7.509,9.883,8.884,16.867C268.97,342.446,268.32,349.178,265.767,354.429z" fill="#af51bf"/></g><g transform="matrix(0.08673373768229911 -0.013877397714494435 0.013877397714494435 0.08673373768229911 210.80168885574426 293.65215537041536)" id="L1_6"><path d="M287.994,204.43c-0.88-0.997-1.821-1.938-2.818-2.818c-12.565-11.041-30.832-12.678-45.16-4.048    c-14.33-8.62-32.588-6.986-45.16,4.04c-13.275,11.727-14.529,31.995-2.802,45.27c0.875,0.991,1.811,1.927,2.802,2.802l45.16,41.16    l45.16-41.16C298.448,237.96,299.71,217.702,287.994,204.43z M276.135,236.077c-0.542,0.634-1.133,1.225-1.767,1.767l0.048,0.008    l-34.4,31.336l-34.4-31.336c-6.745-5.771-7.534-15.916-1.763-22.661c0.541-0.633,1.131-1.222,1.763-1.763    c8.288-7.285,20.696-7.285,28.984,0l5.392,4.92l5.392-4.92c8.288-7.285,20.696-7.285,28.984,0    C281.11,219.195,281.901,229.335,276.135,236.077z" fill="#af51bf"/><path d="M479.611,303.986c-2.782-27.639-19.703-51.856-44.699-63.974c27.68-13.273,45.239-41.303,45.104-72    c0.006-44.183-35.807-80.005-79.99-80.01c-41.093-0.005-75.506,31.123-79.61,72.01h-160.8    c-4.426-43.961-43.65-76.01-87.611-71.585s-76.01,43.65-71.585,87.611c2.782,27.639,19.703,51.856,44.699,63.974    C5.363,259.286-11.242,307.14,8.031,346.898c19.274,39.757,67.128,56.362,106.885,37.089    c24.996-12.118,41.917-36.335,44.699-63.974h160.8c4.426,43.961,43.65,76.01,87.611,71.585S484.037,347.947,479.611,303.986z     M462.415,326.284c-7.856,34.462-42.161,56.031-76.623,48.175c-29.136-6.642-49.798-32.563-49.776-62.447c0-4.418-3.582-8-8-8    h-176c-4.418,0-8,3.582-8,8c0.026,35.346-28.606,64.021-63.953,64.047c-35.346,0.026-64.021-28.606-64.047-63.953    c-0.022-29.884,20.64-55.805,49.776-62.447c3.644-0.83,6.228-4.071,6.224-7.808v-3.68c0.004-3.737-2.58-6.978-6.224-7.808    c-34.462-7.856-56.031-42.161-48.175-76.623c7.856-34.462,42.161-56.031,76.623-48.175c29.136,6.642,49.798,32.563,49.776,62.447    c0,4.418,3.582,8,8,8h176c4.418,0,8-3.582,8-8c-0.026-35.346,28.606-64.021,63.953-64.047    c35.346-0.026,64.021,28.606,64.047,63.953c0.022,29.884-20.64,55.805-49.776,62.447c-3.644,0.83-6.228,4.071-6.224,7.808v3.68    c-0.004,3.737,2.58,6.978,6.224,7.808C448.702,257.516,470.271,291.821,462.415,326.284z" fill="#af51bf"/></g><g transform="matrix(0.0798346357975489 -0.014256185367350889 0.014256185367350889 0.0798346357975489 47.635808079563255 235.7068760217693)" id="L1_8"><path d="M245.204,326.125c-29.326,0-53.184,22.21-53.184,49.509c0,12.964,7.64,20.704,20.436,20.704   c5.876,0,12.325-1.494,18.561-2.938c5.161-1.195,10.497-2.432,14.187-2.432c3.213,0,8.283,1.182,13.185,2.325   c6.421,1.497,13.061,3.045,19.186,3.045c13.033-0.001,20.815-7.74,20.815-20.704C298.389,348.335,274.531,326.125,245.204,326.125z    M280.883,378.816c-0.007,0.005-0.727,0.521-3.31,0.521c-4.169,0-9.84-1.322-15.324-2.601c-6.107-1.425-11.877-2.77-17.045-2.77   c-5.633,0-11.932,1.459-18.023,2.87c-5.305,1.23-10.792,2.5-14.725,2.5c-2.183,0-2.902-0.429-2.913-0.389   c-0.038-0.059-0.523-0.858-0.523-3.316c0-17.926,16.232-32.509,36.184-32.509c19.953,0,36.185,14.583,36.185,32.509   C281.389,377.719,281.002,378.666,280.883,378.816z" fill="#af51bf"/><path d="M218.739,309.891c0-14.963-10.379-27.136-23.137-27.136c-12.759,0-23.139,12.173-23.139,27.136   c0,14.963,10.38,27.136,23.139,27.136C208.36,337.026,218.739,324.853,218.739,309.891z M189.464,309.891   c0-5.801,3.241-10.136,6.139-10.136c2.897,0,6.137,4.335,6.137,10.136c0,5.801-3.24,10.136-6.137,10.136   C192.704,320.026,189.464,315.691,189.464,309.891z" fill="#af51bf"/><path d="M246.745,320.245c12.758,0,23.138-12.173,23.138-27.136s-10.38-27.136-23.138-27.136   c-12.758,0-23.137,12.173-23.137,27.136S233.987,320.245,246.745,320.245z M246.745,282.974c2.898,0,6.138,4.335,6.138,10.136   c0,5.801-3.24,10.136-6.138,10.136c-2.897,0-6.137-4.335-6.137-10.136C240.608,287.309,243.848,282.974,246.745,282.974z" fill="#af51bf"/><path d="M297.889,282.755c-12.759,0-23.139,12.173-23.139,27.136c0,14.963,10.38,27.136,23.139,27.136s23.139-12.173,23.139-27.136   C321.028,294.928,310.648,282.755,297.889,282.755z M297.889,320.026c-2.897,0-6.139-4.335-6.139-10.136   c0-5.801,3.241-10.136,6.139-10.136c2.897,0,6.139,4.335,6.139,10.136C304.028,315.691,300.786,320.026,297.889,320.026z" fill="#af51bf"/><path d="M483.763,169.063L264.798,5.317c-4.651-3.477-10.192-5.316-16.024-5.316l-0.111,0.001C248.61,0.001,248.561,0,248.521,0   l-0.173,0.003c-0.064-0.002-0.126-0.001-0.189-0.001L247.969,0c-0.04,0-0.089,0.001-0.141,0.002l-0.111-0.001   c-5.832,0-11.373,1.839-16.024,5.316L12.729,169.064c-11.828,8.845-14.257,25.666-5.413,37.498l18.346,24.532   c5.033,6.73,13.058,10.746,21.468,10.746c4.271,0,8.391-1.003,12.129-2.913v230.774c0,14.772,12.019,26.79,26.791,26.79h324.392   c14.772,0,26.791-12.018,26.791-26.79V238.926c3.738,1.911,7.857,2.915,12.129,2.915c0.001,0,0,0,0.001,0   c8.409,0,16.435-4.019,21.466-10.747l18.347-24.534C498.019,194.73,495.591,177.909,483.763,169.063z M410.442,479.491H86.05   c-5.399,0-9.791-4.392-9.791-9.79V226.708L248.247,98.095l171.986,128.612v242.994C420.233,475.1,415.84,479.491,410.442,479.491z    M475.561,196.38l-18.347,24.533c-1.866,2.496-4.728,3.928-7.853,3.928c-2.119,0-4.142-0.675-5.849-1.952L253.337,80.673   c-1.509-1.128-3.3-1.692-5.09-1.692s-3.581,0.564-5.09,1.692L52.979,222.89c-1.707,1.276-3.73,1.95-5.849,1.95   c-3.124,0-5.987-1.432-7.854-3.928l-18.345-24.53c-3.232-4.324-2.345-10.472,1.978-13.704L241.874,18.933   c1.689-1.264,3.709-1.931,5.934-1.931c0.001,0,0.001,0,0.003,0c0.065,0,0.129,0.001,0.194-0.001l0.173,0.002   c0.049,0.001,0.1,0.001,0.137,0l0.193-0.002c0.096,0,0.193,0.001,0.266,0c2.133,0,4.154,0.668,5.843,1.932l218.965,163.744   C477.905,185.91,478.791,192.058,475.561,196.38z" fill="#af51bf"/><path d="M311.179,208.345c-24.104,0-46.524,9.634-62.933,26.746c-16.409-17.112-38.831-26.746-62.933-26.746   c-48.179,0-87.376,39.196-87.376,87.376c0,22.47,7.983,45.104,23.727,67.277c12.252,17.254,29.241,34.292,50.495,50.642   c35.829,27.56,71.116,43.561,72.601,44.228c1.107,0.498,2.296,0.748,3.486,0.748c1.047,0,2.097-0.193,3.092-0.582   c1.49-0.582,36.919-14.563,72.867-41.151c21.33-15.776,38.378-32.738,50.67-50.413c15.713-22.592,23.68-46.395,23.68-70.749   C398.555,247.541,359.359,208.345,311.179,208.345z M248.465,440.815c-20.799-10.101-133.528-68.413-133.528-145.094   c0-38.806,31.57-70.376,70.376-70.376c22.243,0,42.71,10.189,56.155,27.956c1.606,2.123,4.115,3.371,6.778,3.371   s5.171-1.248,6.778-3.371c13.444-17.767,33.912-27.956,56.155-27.956c38.806,0,70.376,31.57,70.376,70.376   C381.555,379.587,269.358,431.821,248.465,440.815z" fill="#af51bf"/></g><g transform="matrix(0.11373627930879593 0 0 0.11373627930879593 -26.91532538831234 97.08815554853493)" id="L1_10"><path d="M125.211,358.045c-55.818,0-101.229,41.99-101.229,93.602c0,21.814,11.816,33.827,33.271,33.827   c11.15,0,24.015-2.98,36.457-5.862c11.209-2.596,22.8-5.281,31.501-5.281c7.72,0,18.269,2.46,29.437,5.064   c12.819,2.989,26.073,6.08,37.732,6.08c0.001,0,0.004,0,0.006,0c21.96-0.002,34.055-12.015,34.055-33.827   C226.44,400.035,181.029,358.045,125.211,358.045z M192.384,468.474c-0.002,0-0.002,0-0.004,0c-9.703,0-21.99-2.865-33.872-5.636   c-12.147-2.832-23.622-5.508-33.297-5.508c-10.645,0-23.198,2.908-35.338,5.72c-11.51,2.666-23.413,5.423-32.62,5.423   c-10.553,0-16.271-2.682-16.271-16.827c0-42.238,37.785-76.602,84.229-76.602c46.444,0,84.229,34.364,84.229,76.602   C209.44,464.227,205.137,468.473,192.384,468.474z" fill="#af51bf"/><path d="M77.753,320.58c0-31.438-17.077-56.064-38.876-56.064C17.077,264.516,0,289.143,0,320.58s17.077,56.064,38.877,56.064   C60.677,376.644,77.753,352.018,77.753,320.58z M17,320.58c0-23.021,11.529-39.064,21.877-39.064   c10.347,0,21.876,16.043,21.876,39.064c0,23.021-11.529,39.064-21.876,39.064C28.529,359.644,17,343.601,17,320.58z" fill="#af51bf"/><path d="M128.409,341.47c21.8,0,38.877-24.626,38.877-56.063s-17.077-56.064-38.877-56.064s-38.877,24.627-38.877,56.064   S106.608,341.47,128.409,341.47z M128.409,246.343c10.348,0,21.877,16.043,21.877,39.064c0,23.021-11.529,39.063-21.877,39.063   c-10.348,0-21.877-16.043-21.877-39.063C106.532,262.386,118.061,246.343,128.409,246.343z" fill="#af51bf"/><path d="M217.94,264.516c-21.8,0-38.877,24.626-38.877,56.064s17.077,56.064,38.877,56.064c21.8,0,38.877-24.626,38.877-56.064   S239.741,264.516,217.94,264.516z M217.94,359.644c-10.348,0-21.877-16.043-21.877-39.064c0-23.021,11.529-39.064,21.877-39.064   c10.348,0,21.877,16.043,21.877,39.064C239.817,343.601,228.288,359.644,217.94,359.644z" fill="#af51bf"/><path d="M359.211,134.045c-55.818,0-101.229,41.99-101.229,93.602c0,21.813,11.816,33.827,33.271,33.827   c11.15,0,24.015-2.98,36.457-5.862c11.209-2.596,22.8-5.281,31.501-5.281c7.72,0,18.269,2.46,29.437,5.064   c12.819,2.989,26.073,6.08,37.732,6.08c0.001,0,0.004,0,0.006,0c21.96-0.002,34.055-12.015,34.055-33.827   C460.44,176.035,415.029,134.045,359.211,134.045z M426.384,244.474c-0.002,0-0.002,0-0.004,0c-9.703,0-21.99-2.865-33.872-5.636   c-12.147-2.833-23.622-5.508-33.297-5.508c-10.645,0-23.198,2.908-35.338,5.72c-11.51,2.666-23.413,5.423-32.62,5.423   c-10.553,0-16.271-2.682-16.271-16.827c0-42.238,37.785-76.602,84.229-76.602s84.229,34.364,84.229,76.602   C443.44,240.227,439.137,244.473,426.384,244.474z" fill="#af51bf"/><path d="M272.877,152.644c21.8,0,38.876-24.626,38.876-56.063s-17.077-56.064-38.876-56.064c-21.8,0-38.877,24.626-38.877,56.064   S251.077,152.644,272.877,152.644z M272.877,57.516c10.347,0,21.876,16.043,21.876,39.064c0,23.021-11.529,39.063-21.876,39.063   c-10.348,0-21.877-16.043-21.877-39.063C251,73.559,262.529,57.516,272.877,57.516z" fill="#af51bf"/><path d="M362.409,117.47c21.8,0,38.877-24.626,38.877-56.063S384.209,5.343,362.409,5.343c-21.8,0-38.877,24.627-38.877,56.064   S340.608,117.47,362.409,117.47z M362.409,22.343c10.348,0,21.877,16.043,21.877,39.064c0,23.021-11.529,39.063-21.877,39.063   c-10.348,0-21.877-16.043-21.877-39.063C340.532,38.386,352.061,22.343,362.409,22.343z" fill="#af51bf"/><path d="M451.94,40.516c-21.8,0-38.877,24.626-38.877,56.064s17.077,56.063,38.877,56.063c21.8,0,38.877-24.626,38.877-56.063   S473.741,40.516,451.94,40.516z M451.94,135.644c-10.348,0-21.877-16.043-21.877-39.063c0-23.021,11.529-39.064,21.877-39.064   c10.348,0,21.877,16.043,21.877,39.064C473.817,119.601,462.288,135.644,451.94,135.644z" fill="#af51bf"/></g><g transform="matrix(0.08247460325565716 -0.011782085890661665 0.011782085890661665 0.08247460325565716 145.8702875785424 55.902715554561155)" id="L1_11"><path d="M352.536,63.964c-27.29-19.54-60.691-30.951-96.536-30.951c-35.845,0-69.245,11.411-96.536,30.951    C71.273,65.496,0,137.568,0,225.954v61.966c0,27.523,22.424,49.914,49.986,49.914c8.667,0,16.823-2.217,23.936-6.107l-0.365,3.183    c-0.115,1.01-0.217,2.018-0.307,3.035c-1.78,20.398,2.741,40.058,13.076,56.851c9.549,15.516,23.56,27.954,40.517,35.97    c13.347,6.31,27.44,9.387,41.363,9.387c4.775,0,9.526-0.376,14.223-1.094c15.625,24.014,42.698,39.928,73.422,39.928h0.299    c30.724,0,57.798-15.914,73.422-39.929c18.389,2.811,37.663,0.181,55.586-8.292c16.957-8.016,30.967-20.455,40.516-35.97    c10.335-16.793,14.856-36.453,13.076-56.845c-0.088-1.017-0.191-2.037-0.308-3.05l-0.364-3.174    c7.113,3.891,15.269,6.107,23.936,6.107c27.563,0,49.986-22.391,49.986-49.914v-61.966C512,137.568,440.727,65.497,352.536,63.964    z M93.918,164.08c-14.873,16.371-23.946,38.084-23.946,61.874v61.966c0,10.98-8.966,19.914-19.985,19.914    c-11.021,0-19.986-8.934-19.986-19.914v-61.966c0-59.087,39.107-109.231,92.853-126.026    C108.99,118.589,98.939,140.33,93.918,164.08z M256.15,448.986h-0.299v-0.001c-17.333,0-32.889-7.716-43.446-19.88    c7.963-4.238,15.439-9.662,22.173-16.253L256,391.885l21.422,20.967c6.735,6.592,14.213,12.012,22.177,16.25    C289.041,441.269,273.485,448.986,256.15,448.986z M372.337,403.643c-20.027,9.467-49.966,11.225-73.931-12.23l-25.851-25.302    h7.373c24.813,0,45-20.187,45-45v-14.605c0-24.813-20.187-45-45-45h-47.857c-24.813,0-45,20.187-45,45v14.605    c0,24.813,20.187,45,45,45h7.373l-25.851,25.302c-23.966,23.456-53.904,21.696-73.93,12.23    c-19.516-9.226-39.359-30.644-36.528-63.08c0.065-0.748,0.142-1.497,0.227-2.239l17.843-155.354    C129.059,114.583,187.008,63.013,256,63.013s126.942,51.57,134.796,119.957l17.843,155.361c0.086,0.74,0.16,1.478,0.225,2.221    C411.695,372.999,391.852,394.417,372.337,403.643z M232.071,336.111c-8.271,0-15-6.729-15-15v-14.605c0-8.271,6.729-15,15-15    h47.857c8.271,0,15,6.729,15,15v14.605c0,8.271-6.729,15-15,15H232.071z M482,287.92c0,10.98-8.966,19.914-19.986,19.914    c-11.02,0-19.985-8.934-19.985-19.914v-61.966c0-23.789-9.073-45.501-23.944-61.872c-5.021-23.75-15.073-45.491-28.937-64.153    C442.894,116.723,482,166.867,482,225.954V287.92z" fill="#af51bf"/><path d="M198.347,161.528c-8.284,0-15,6.716-15,15v28.115c0,8.284,6.716,15,15,15s15-6.716,15-15v-28.115    C213.347,168.244,206.631,161.528,198.347,161.528z" fill="#af51bf"/><path d="M313.653,161.528c-8.284,0-15,6.716-15,15v28.115c0,8.284,6.716,15,15,15s15-6.716,15-15v-28.115    C328.653,168.244,321.937,161.528,313.653,161.528z" fill="#af51bf"/></g><g transform="matrix(0.08488873392343521 0 0 0.08488873392343521 309.26842498779297 276.26374328893155)" id="L1_12"><path d="M331.137,340.558c-8.284,0-15,6.716-15,15c0,7.103-4.905,10.366-7.014,11.439c-2.108,1.074-7.634,3.118-13.377-1.062    l-14.258-10.378L271,347.924v-8.775c24.036-0.889,43.318-20.709,43.318-45.007c0-24.813-20.187-45-45-45h-26.637    c-24.813,0-45,20.187-45,45v0.05c0,24.25,19.282,44.068,43.318,44.957v8.775l-10.488,7.634l-14.257,10.378    c-5.743,4.182-11.268,2.135-13.377,1.062c-2.108-1.073-7.014-4.337-7.014-11.439c0-8.284-6.716-15-15-15s-15,6.716-15,15    c0,16.199,8.969,30.827,23.405,38.176c14.438,7.348,31.543,5.991,44.641-3.543l22.09-16.08l22.092,16.081    c7.497,5.456,16.307,8.234,25.178,8.234c6.627,0,13.288-1.551,19.462-4.692c14.437-7.349,23.405-21.977,23.405-38.176    C346.137,347.274,339.421,340.558,331.137,340.558z M242.682,309.191c-8.272,0-15-6.729-15-15v-0.05c0-8.271,6.729-15,15-15    h26.637c8.271,0,15,6.729,15,15.05c0,8.271-6.729,15-15,15H242.682z" fill="#af51bf"/><path d="M199.174,181.763c-8.284,0-15,6.716-15,15v20.574c0,8.285,6.716,15,15,15s15-6.716,15-15v-20.574    C214.174,188.479,207.458,181.763,199.174,181.763z" fill="#af51bf"/><path d="M312.827,181.763c-8.284,0-15,6.716-15,15v20.574c0,8.285,6.715,15,15,15c8.284,0,15-6.716,15-15v-20.574    C327.827,188.479,321.111,181.763,312.827,181.763z" fill="#af51bf"/><path d="M511.954,325.489c-0.645-8.259-7.88-14.427-16.121-13.787l-29.288,2.286c1.305-5.86,2.356-11.794,3.172-17.785    l27.07-2.112c8.259-0.645,14.432-7.862,13.787-16.121c-0.645-8.259-7.881-14.445-16.121-13.787l-22.73,1.774    c-0.125-39.655-11.031-78.166-31.62-111.795l17.703-107.084c0.75-4.537-0.622-9.167-3.724-12.563s-7.592-5.176-12.176-4.844    l-0.904,0.067c-36.904,2.721-71.656,15.88-100.976,38.162C313.446,56.625,285.223,50.915,256,50.915    c-29.228,0-57.453,5.712-84.037,16.99C142.367,45.412,107.264,32.222,70.02,29.666c-4.581-0.315-9.043,1.482-12.127,4.876    c-3.085,3.393-4.447,8.011-3.699,12.535l17.703,107.084c-20.533,33.542-31.449,71.97-31.623,111.52    c0,0.092,0.002,0.184,0.002,0.276l-22.729-1.774c-8.25-0.636-15.477,5.526-16.121,13.787c-0.645,8.259,5.528,15.477,13.787,16.121    l27.084,2.114c0.823,5.99,1.89,11.924,3.207,17.787l-29.337-2.29c-8.248-0.635-15.477,5.526-16.121,13.787    c-0.645,8.259,5.527,15.477,13.787,16.121l41.1,3.208c10.648,27.25,26.912,52.315,48.228,73.759    c40.796,41.043,94.946,63.699,152.476,63.794c0.123,0,0.244,0,0.367,0c57.558,0,111.674-22.387,152.413-63.059    c21.597-21.561,38.057-46.889,48.775-74.504l40.976-3.198C506.427,340.965,512.599,333.748,511.954,325.489z M441.707,268.299    l-45.818,3.575c-8.259,0.645-14.432,7.862-13.787,16.121c0.613,7.862,7.183,13.834,14.938,13.834c0.392,0,0.787-0.016,1.184-0.047    l40.781-3.182c-1.04,6.032-2.373,11.988-3.994,17.849l-37.742,2.946c-8.26,0.645-14.432,7.862-13.787,16.121    c0.613,7.862,7.183,13.834,14.938,13.834c0.392,0,0.787-0.016,1.184-0.047l23.718-1.851c-8.972,18.541-21.091,35.644-36.101,50.63    c-35.076,35.019-81.662,54.291-131.22,54.289c-0.104,0-0.213,0-0.316,0c-49.5-0.082-96.111-19.594-131.248-54.942    c-14.767-14.856-26.712-31.728-35.599-49.965l23.558,1.839c0.397,0.031,0.791,0.047,1.184,0.047    c7.754,0,14.324-5.972,14.938-13.834c0.645-8.259-5.527-15.477-13.787-16.121l-37.667-2.94    c-1.636-5.865-2.984-11.821-4.034-17.852l40.746,3.18c0.397,0.031,0.791,0.047,1.184,0.047c7.754,0,14.324-5.972,14.938-13.834    c0.645-8.259-5.528-15.477-13.787-16.121l-45.816-3.575c-0.007-0.829-0.023-1.656-0.02-2.486    c0.157-35.755,10.506-70.436,29.927-100.293c2.042-3.14,2.836-6.93,2.225-10.625L87.076,62.052    c26.059,4.948,50.379,16.263,71.188,33.246l2.029,1.656c4.492,3.666,10.698,4.416,15.936,1.921    c13.319-6.345,27.159-11.008,41.398-13.997v43.874c0,8.284,6.716,15,15,15s15-6.716,15-15V81.114    c2.78-0.122,5.569-0.199,8.372-0.199c2.803,0,5.592,0.078,8.372,0.199v47.638c0,8.284,6.716,15,15,15s15-6.716,15-15V84.879    c14.24,2.989,28.079,7.652,41.398,13.997c5.259,2.504,11.494,1.739,15.99-1.966l1.365-1.125    c20.933-17.25,45.47-28.736,71.797-33.731l-15.349,92.841c-0.611,3.695,0.183,7.486,2.226,10.626    c19.579,30.098,29.929,65.065,29.929,101.122C441.727,267.196,441.712,267.747,441.707,268.299z" fill="#af51bf"/></g></defs><g fi:class="KUsePattern"><pattern id="pattern_L1_0" width="350" height="350" patternUnits="userSpaceOnUse"><use xlink:href="#L1_0" x="-350" y="-350"/><use xlink:href="#L1_0" x="0" y="-350"/><use xlink:href="#L1_0" x="350" y="-350"/><use xlink:href="#L1_0" x="-350" y="0"/><use xlink:href="#L1_0" x="0" y="0"/><use xlink:href="#L1_0" x="350" y="0"/><use xlink:href="#L1_0" x="-350" y="350"/><use xlink:href="#L1_0" x="0" y="350"/><use xlink:href="#L1_0" x="350" y="350"/></pattern><rect x="0" y="0" width="100%" height="100%" fill="url(#pattern_L1_0)"/></g><g fi:class="KUsePattern"><pattern id="pattern_L1_1" width="350" height="350" patternUnits="userSpaceOnUse"><use xlink:href="#L1_1" x="-350" y="-350"/><use xlink:href="#L1_1" x="0" y="-350"/><use xlink:href="#L1_1" x="350" y="-350"/><use xlink:href="#L1_1" x="-350" y="0"/><use xlink:href="#L1_1" x="0" y="0"/><use xlink:href="#L1_1" x="350" y="0"/><use xlink:href="#L1_1" x="-350" y="350"/><use xlink:href="#L1_1" x="0" y="350"/><use xlink:href="#L1_1" x="350" y="350"/></pattern><rect x="0" y="0" width="100%" height="100%" fill="url(#pattern_L1_1)"/></g><g fi:class="KUsePattern"><pattern id="pattern_L1_2" width="350" height="350" patternUnits="userSpaceOnUse"><use xlink:href="#L1_2" x="-350" y="-350"/><use xlink:href="#L1_2" x="0" y="-350"/><use xlink:href="#L1_2" x="350" y="-350"/><use xlink:href="#L1_2" x="-350" y="0"/><use xlink:href="#L1_2" x="0" y="0"/><use xlink:href="#L1_2" x="350" y="0"/><use xlink:href="#L1_2" x="-350" y="350"/><use xlink:href="#L1_2" x="0" y="350"/><use xlink:href="#L1_2" x="350" y="350"/></pattern><rect x="0" y="0" width="100%" height="100%" fill="url(#pattern_L1_2)"/></g><g fi:class="KUsePattern"><pattern id="pattern_L1_3" width="350" height="350" patternUnits="userSpaceOnUse"><use xlink:href="#L1_3" x="-350" y="-350"/><use xlink:href="#L1_3" x="0" y="-350"/><use xlink:href="#L1_3" x="350" y="-350"/><use xlink:href="#L1_3" x="-350" y="0"/><use xlink:href="#L1_3" x="0" y="0"/><use xlink:href="#L1_3" x="350" y="0"/><use xlink:href="#L1_3" x="-350" y="350"/><use xlink:href="#L1_3" x="0" y="350"/><use xlink:href="#L1_3" x="350" y="350"/></pattern><rect x="0" y="0" width="100%" height="100%" fill="url(#pattern_L1_3)"/></g><g fi:class="KUsePattern"><pattern id="pattern_L1_4" width="350" height="350" patternUnits="userSpaceOnUse"><use xlink:href="#L1_4" x="-350" y="-350"/><use xlink:href="#L1_4" x="0" y="-350"/><use xlink:href="#L1_4" x="350" y="-350"/><use xlink:href="#L1_4" x="-350" y="0"/><use xlink:href="#L1_4" x="0" y="0"/><use xlink:href="#L1_4" x="350" y="0"/><use xlink:href="#L1_4" x="-350" y="350"/><use xlink:href="#L1_4" x="0" y="350"/><use xlink:href="#L1_4" x="350" y="350"/></pattern><rect x="0" y="0" width="100%" height="100%" fill="url(#pattern_L1_4)"/></g><g fi:class="KUsePattern"><pattern id="pattern_L1_5" width="350" height="350" patternUnits="userSpaceOnUse"><use xlink:href="#L1_5" x="-350" y="-350"/><use xlink:href="#L1_5" x="0" y="-350"/><use xlink:href="#L1_5" x="350" y="-350"/><use xlink:href="#L1_5" x="-350" y="0"/><use xlink:href="#L1_5" x="0" y="0"/><use xlink:href="#L1_5" x="350" y="0"/><use xlink:href="#L1_5" x="-350" y="350"/><use xlink:href="#L1_5" x="0" y="350"/><use xlink:href="#L1_5" x="350" y="350"/></pattern><rect x="0" y="0" width="100%" height="100%" fill="url(#pattern_L1_5)"/></g><g fi:class="KUsePattern"><pattern id="pattern_L1_6" width="350" height="350" patternUnits="userSpaceOnUse"><use xlink:href="#L1_6" x="-350" y="-350"/><use xlink:href="#L1_6" x="0" y="-350"/><use xlink:href="#L1_6" x="350" y="-350"/><use xlink:href="#L1_6" x="-350" y="0"/><use xlink:href="#L1_6" x="0" y="0"/><use xlink:href="#L1_6" x="350" y="0"/><use xlink:href="#L1_6" x="-350" y="350"/><use xlink:href="#L1_6" x="0" y="350"/><use xlink:href="#L1_6" x="350" y="350"/></pattern><rect x="0" y="0" width="100%" height="100%" fill="url(#pattern_L1_6)"/></g><g fi:class="KUsePattern"><pattern id="pattern_L1_8" width="350" height="350" patternUnits="userSpaceOnUse"><use xlink:href="#L1_8" x="-350" y="-350"/><use xlink:href="#L1_8" x="0" y="-350"/><use xlink:href="#L1_8" x="350" y="-350"/><use xlink:href="#L1_8" x="-350" y="0"/><use xlink:href="#L1_8" x="0" y="0"/><use xlink:href="#L1_8" x="350" y="0"/><use xlink:href="#L1_8" x="-350" y="350"/><use xlink:href="#L1_8" x="0" y="350"/><use xlink:href="#L1_8" x="350" y="350"/></pattern><rect x="0" y="0" width="100%" height="100%" fill="url(#pattern_L1_8)"/></g><g fi:class="KUsePattern"><pattern id="pattern_L1_10" width="350" height="350" patternUnits="userSpaceOnUse"><use xlink:href="#L1_10" x="-350" y="-350"/><use xlink:href="#L1_10" x="0" y="-350"/><use xlink:href="#L1_10" x="350" y="-350"/><use xlink:href="#L1_10" x="-350" y="0"/><use xlink:href="#L1_10" x="0" y="0"/><use xlink:href="#L1_10" x="350" y="0"/><use xlink:href="#L1_10" x="-350" y="350"/><use xlink:href="#L1_10" x="0" y="350"/><use xlink:href="#L1_10" x="350" y="350"/></pattern><rect x="0" y="0" width="100%" height="100%" fill="url(#pattern_L1_10)"/></g><g fi:class="KUsePattern"><pattern id="pattern_L1_11" width="350" height="350" patternUnits="userSpaceOnUse"><use xlink:href="#L1_11" x="-350" y="-350"/><use xlink:href="#L1_11" x="0" y="-350"/><use xlink:href="#L1_11" x="350" y="-350"/><use xlink:href="#L1_11" x="-350" y="0"/><use xlink:href="#L1_11" x="0" y="0"/><use xlink:href="#L1_11" x="350" y="0"/><use xlink:href="#L1_11" x="-350" y="350"/><use xlink:href="#L1_11" x="0" y="350"/><use xlink:href="#L1_11" x="350" y="350"/></pattern><rect x="0" y="0" width="100%" height="100%" fill="url(#pattern_L1_11)"/></g><g fi:class="KUsePattern"><pattern id="pattern_L1_12" width="350" height="350" patternUnits="userSpaceOnUse"><use xlink:href="#L1_12" x="-350" y="-350"/><use xlink:href="#L1_12" x="0" y="-350"/><use xlink:href="#L1_12" x="350" y="-350"/><use xlink:href="#L1_12" x="-350" y="0"/><use xlink:href="#L1_12" x="0" y="0"/><use xlink:href="#L1_12" x="350" y="0"/><use xlink:href="#L1_12" x="-350" y="350"/><use xlink:href="#L1_12" x="0" y="350"/><use xlink:href="#L1_12" x="350" y="350"/></pattern><rect x="0" y="0" width="100%" height="100%" fill="url(#pattern_L1_12)"/></g></svg>